SplineFontDB: 3.2
FontName: dahufi
FullName: dahufi
FamilyName: dahufi
Weight: Regular
Copyright: Copyright (c) 2020, Matthew Stoodley
UComments: "2020-7-9: Created with FontForge (http://fontforge.org)"
Version: 001.000
DefaultBaseFilename: dahufi
ItalicAngle: 0
UnderlinePosition: -102
UnderlineWidth: 51
Ascent: 819
Descent: 205
InvalidEm: 0
LayerCount: 2
Layer: 0 0 "Back" 1
Layer: 1 0 "Fore" 0
XUID: [1021 208 -1550797864 13806809]
StyleMap: 0x0000
FSType: 0
OS2Version: 0
OS2_WeightWidthSlopeOnly: 0
OS2_UseTypoMetrics: 1
CreationTime: 1594294544
ModificationTime: 1600179387
OS2TypoAscent: 0
OS2TypoAOffset: 1
OS2TypoDescent: 0
OS2TypoDOffset: 1
OS2TypoLinegap: 92
OS2WinAscent: 0
OS2WinAOffset: 1
OS2WinDescent: 0
OS2WinDOffset: 1
HheadAscent: 0
HheadAOffset: 1
HheadDescent: 0
HheadDOffset: 1
MarkAttachClasses: 1
DEI: 91125
Encoding: UnicodeBmp
UnicodeInterp: none
NameList: AGL For New Fonts
DisplaySize: -36
AntiAlias: 1
FitToEm: 0
WinInfo: 57344 14 12
BeginPrivate: 0
EndPrivate
AnchorClass2: "central""" 
BeginChars: 65536 95

StartChar: uniE000
Encoding: 57344 57344 0
Width: 400
VWidth: 0
InSpiro: 1
Flags: HW
LayerCount: 2
Fore
SplineSet
400 813 m 1
 390.359917921 736.970459699 365.007399761 662.968514798 326 597 c 0
 284.623766951 527.025362906 227.90252574 466.178940517 161 420 c 1
 211.480863904 371.743267083 255.933893612 317.187276078 293 258 c 0
 342.64397788 178.728338887 378.969926646 91.1386680289 400 0 c 1
 251 0 l 1
 242.879861907 94.8848795495 210.584846232 187.60282778 158 267 c 0
 116.473562862 329.700224826 62.4369830948 384.078808262 0 426 c 1
 88.8271487604 470.915170619 163.702872586 542.965395433 212 630 c 0
 244.285218227 688.180089629 264.815774316 752.85134131 272 819 c 1
 400 813 l 1
  Spiro
    400 813 v
    326 597 o
    161 420 v
    293 258 o
    400 0 v
    251 0 v
    158 267 o
    0 426 v
    212 630 o
    272 819 v
    0 0 z
  EndSpiro
EndSplineSet
Validated: 1
EndChar

StartChar: uniE001
Encoding: 57345 57345 1
Width: 600
VWidth: 0
InSpiro: 1
Flags: HW
LayerCount: 2
Fore
SplineSet
329.676 369.664 m 1
 305.358566451 369.18403843 281.173345994 362.771766491 259.834597139 351.100188413 c 0
 238.495848285 339.428610335 220.005896885 322.502207564 206.796 302.08 c 0
 193.343179519 281.282237944 185.427434863 256.79829688 185.047664755 232.031765833 c 0
 184.667894646 207.265234786 192.002764969 182.292261413 206.507241385 162.213779167 c 0
 221.011717801 142.13529692 242.68194828 127.254013487 266.748194203 121.39388613 c 0
 290.814440125 115.533758774 316.894310701 118.825753445 339 130 c 0
 357.701712539 139.453563926 373.479858739 154.288039502 385.032957425 171.77088348 c 0
 396.586056112 189.253727457 404.005513089 209.267832224 408.199283614 229.799179271 c 0
 416.586824666 270.861873366 412.803443247 313.365607676 408 355 c 0
 400.478450847 420.193885354 392.500124527 485.389137716 381 550 c 0
 365.836005888 635.19548923 338.413473424 718.732500506 294 793 c 1
 423 820 l 1
 439.875648911 713.350784096 462.780766758 607.77315104 483.276 501.76 c 0
 494.41569442 444.139084293 504.347047708 386.056806774 506.424341118 327.405740537 c 0
 508.501634527 268.754674301 502.252695164 209.012581156 480.204 154.624 c 0
 462.334168277 110.543623102 433.743506519 70.3238006836 395.556720111 41.9657355677 c 0
 357.369933704 13.6076704519 309.605862245 -2.20077436239 262.092 0 c 0
 221.186423194 1.89468800178 181.002541302 17.1056810769 149.128460123 42.8136371516 c 0
 117.254378945 68.5215932264 93.8985274333 104.426165284 82.50729266 143.759304325 c 0
 71.1160578866 183.092443366 71.5719129497 225.61237594 82.6736669575 265.028199088 c 0
 93.7754209652 304.444022236 115.350672665 340.74129019 144 370 c 0
 188.136452326 415.07525205 249.102323315 443.133066785 312 448 c 1
 329.676 369.664 l 1
  Spiro
    329.676 369.664 v
    206.796 302.08 o
    339 130 o
    408 355 o
    381 550 o
    294 793 v
    423 820 v
    483.276 501.76 o
    480.204 154.624 o
    262.092 0 o
    144 370 o
    312 448 v
    0 0 z
  EndSpiro
EndSplineSet
Validated: 33
EndChar

StartChar: uniE002
Encoding: 57346 57346 2
Width: 400
VWidth: 0
InSpiro: 1
Flags: HW
LayerCount: 2
Fore
SplineSet
-116.1875 254.975585938 m 1024
  Spiro
    -116.187 254.976 {
    0 0 z
  EndSpiro
335.397 794.624 m 1
 310 714 l 1
 295.342311059 727.728580743 276.849490726 737.318780456 257.183622085 741.39006832 c 0
 237.517753443 745.461356183 216.737341865 744.001620237 197.833774338 737.220992755 c 0
 178.930206811 730.440365273 161.959720885 718.359018418 149.36525618 702.716089245 c 0
 136.770791476 687.073160073 128.589816149 667.915185829 126 648 c 0
 123.348252366 627.608573017 126.573167573 606.48681071 135.189058122 587.815750484 c 0
 143.80494867 569.144690258 157.783660952 552.985342374 175.019934713 541.771381132 c 0
 192.256208474 530.55741989 212.693721816 524.325488452 233.254488467 524.014145199 c 0
 253.815255118 523.702801946 274.432089941 529.313064234 292 540 c 1
 298 0 l 1
 206.373 0 l 1
 224 440 l 1
 172.040887917 442.867949923 121.677766046 467.955660545 88.089194834 507.702136479 c 0
 54.5006236221 547.448612414 38.1629270725 601.290203589 44 653 c 0
 47.6067721313 684.951879808 59.4107450464 715.944339596 77.9732742471 742.200080647 c 0
 96.5358034478 768.455821698 121.817756463 789.919493147 150.737819664 803.975145851 c 0
 179.657882865 818.030798554 212.155088615 824.648801181 244.268742781 823.022564872 c 0
 276.382396948 821.396328563 308.044799346 811.529281656 335.397 794.624 c 1
  Spiro
    335.397 794.624 v
    310 714 v
    126 648 o
    292 540 v
    298 0 v
    206.373 0 v
    224 440 v
    44 653 o
    0 0 z
  EndSpiro
EndSplineSet
Validated: 524321
EndChar

StartChar: uniE003
Encoding: 57347 57347 3
Width: 800
VWidth: 0
InSpiro: 1
Flags: HW
LayerCount: 2
Fore
SplineSet
385.57421875 578.559570312 m 0
 426.755859375 581.043945312 468.484375 573.266601562 506.112304688 556.349609375 c 0
 543.740234375 539.432617188 577.189453125 513.490234375 603.467773438 481.686523438 c 0
 656.025390625 418.078125 678.8984375 331.670898438 668.198242188 249.856445312 c 0
 660.015625 187.293945312 632.42578125 127.073242188 588.805664062 81.4853515625 c 0
 545.185546875 35.8974609375 485.270507812 5.7529296875 422.438476562 0 c 0
 381.588867188 -3.740234375 339.879882812 2.6484375 301.936523438 18.234375 c 0
 263.993164062 33.8203125 229.899414062 58.4931640625 202.731445312 89.2255859375 c 0
 148.39453125 150.69140625 122.811523438 235.770507812 130.598632812 317.440429688 c 0
 136.883789062 383.364257812 164.676757812 447.444335938 210.248046875 495.494140625 c 0
 255.8203125 543.543945312 319.470703125 574.572265625 385.57421875 578.559570312 c 0
  Spiro
    668.195 249.856 o
    422.435 0 o
    130.595 317.44 o
    385.571 578.56 o
    0 0 z
  EndSpiro
513 463 m 0
 492.381530871 476.131411361 468.433657163 483.861658214 444.065637976 485.799408062 c 0
 419.69761879 487.73715791 395.000848091 483.976689963 371.953468039 475.829696268 c 0
 325.858707935 459.535708877 286.652172316 426.614062601 258 387 c 0
 231.065110692 349.760227063 212.726561499 305.431419671 210.738184111 259.514807146 c 0
 209.743995417 236.556500884 212.99226968 213.337153873 221.077042107 191.826489253 c 0
 229.161814534 170.315824633 242.133431731 150.607405692 259 135 c 0
 277.208351459 118.150981061 299.857459503 106.221027882 323.962622074 100.358038928 c 0
 348.067784646 94.4950499739 373.493947731 94.6266378297 397.763555796 99.7666404027 c 0
 446.302771926 110.046645549 489.537883396 139.477406888 522 177 c 0
 557.439098747 217.963653071 581.58348848 270.124384355 582.874018335 324.274962613 c 0
 583.519283262 351.350251741 578.184065366 378.691524937 566.280119804 403.018130296 c 0
 554.376174242 427.344735655 535.843560301 448.45148114 513 463 c 0
  Spiro
    513 463 o
    258 387 o
    259 135 o
    522 177 o
    0 0 z
  EndSpiro
EndSplineSet
Validated: 524321
EndChar

StartChar: uniE004
Encoding: 57348 57348 4
Width: 400
VWidth: 0
InSpiro: 1
Flags: HW
LayerCount: 2
Fore
SplineSet
25 551 m 1
 5.25969187001 583.846411 -2.17177036093 623.889756608 4.42119271907 661.640244266 c 0
 11.0141557991 699.390731925 31.5496247733 734.479765914 61 759 c 0
 96.9802344932 788.956962024 145.678209942 802.512340709 192.202385908 797.268496843 c 0
 238.726561875 792.024652978 282.427581304 768.630854705 315 735 c 0
 342.181881784 706.93484692 361.895297157 672.09644553 374.47552758 635.106645352 c 0
 387.055758004 598.116845174 392.686866562 559.007612095 393.942374486 519.957244432 c 0
 396.453390333 441.856509108 382.545114425 364.283506596 371 287 c 0
 356.800947176 191.950912381 346.626830832 96.1030847739 347 0 c 1
 255 0 l 1
 251.427656693 88.18546718 261.481205044 176.498381046 279 263 c 0
 292.948457131 331.872552409 311.748893453 400.088749281 317.431414014 470.129429544 c 0
 320.272674294 505.149769675 319.513577331 540.732929439 311.505062635 574.943464005 c 0
 303.496547938 609.153998571 287.855843043 642.166875961 263 667 c 0
 242.216492954 687.764510282 214.739672344 702.402888762 185.488556916 705.13991245 c 0
 156.237441489 707.876936139 125.608100689 697.938606411 105 677 c 0
 89.8623299422 661.619557129 80.4364599301 640.671151056 79.2893156102 619.121414687 c 0
 78.1421712903 597.571678318 85.3049618551 575.677919771 99 559 c 1
 25 551 l 1
  Spiro
    25 551 v
    61 759 o
    315 735 o
    371 287 o
    347 0 v
    255 0 v
    279 263 o
    263 667 o
    105 677 o
    99 559 v
    0 0 z
  EndSpiro
EndSplineSet
Validated: 524321
EndChar

StartChar: uniE005
Encoding: 57349 57349 5
Width: 300
VWidth: 0
Flags: HW
LayerCount: 2
Fore
SplineSet
95 823 m 1
 91.5 0 l 1
 208.5 0 l 1
 173 819 l 1
 95 823 l 1
EndSplineSet
Validated: 524297
EndChar

StartChar: uniE006
Encoding: 57350 57350 6
Width: 400
VWidth: 0
Flags: HW
LayerCount: 2
Fore
SplineSet
373 551 m 5
 392.740234375 583.846679688 400.171875 623.889648438 393.579101562 661.640625 c 4
 386.986328125 699.390625 366.450195312 734.479492188 337 759 c 4
 301.01953125 788.95703125 252.322265625 802.512695312 205.797851562 797.268554688 c 4
 159.2734375 792.024414062 115.572265625 768.630859375 83 735 c 4
 55.818359375 706.934570312 36.1044921875 672.096679688 23.5244140625 635.106445312 c 4
 10.9443359375 598.1171875 5.3134765625 559.0078125 4.0576171875 519.95703125 c 4
 1.546875 441.856445312 15.455078125 364.283203125 27 287 c 4
 41.19921875 191.951171875 51.373046875 96.103515625 51 0 c 5
 143 0 l 5
 146.572265625 88.185546875 136.518554688 176.498046875 119 263 c 4
 105.051757812 331.872070312 86.2509765625 400.088867188 80.568359375 470.129882812 c 4
 77.7275390625 505.149414062 78.486328125 540.733398438 86.4951171875 574.943359375 c 4
 94.50390625 609.154296875 110.14453125 642.166992188 135 667 c 4
 155.783203125 687.764648438 183.260742188 702.403320312 212.51171875 705.139648438 c 4
 241.762695312 707.876953125 272.391601562 697.938476562 293 677 c 4
 308.137695312 661.619140625 317.563476562 640.670898438 318.7109375 619.12109375 c 4
 319.857421875 597.571289062 312.6953125 575.677734375 299 559 c 5
 373 551 l 5
  Spiro
    373 551 v
    337 759 o
    83 735 o
    27 287 o
    51 0 v
    143 0 v
    119 263 o
    135 667 o
    293 677 o
    299 559 v
    0 0 z
  EndSpiro
EndSplineSet
Validated: 524329
EndChar

StartChar: uniE007
Encoding: 57351 57351 7
Width: 850
VWidth: 0
Flags: HW
LayerCount: 2
Fore
SplineSet
828.5 237 m 5
 755.5 294 l 5
 632.5 65 218.5 155 87.5 278 c 5
 21.5 209 l 5
 173.5 49 717.5 -9 828.5 237 c 5
EndSplineSet
Validated: 524329
EndChar

StartChar: uniE008
Encoding: 57352 57352 8
Width: 850
VWidth: 0
InSpiro: 1
Flags: HW
LayerCount: 2
Fore
SplineSet
28.7106 67.584 m 1
 127.014 21.504 l 1
 156.235420193 84.0867426107 203.57694957 138.159285441 262 175 c 0
 332.917515504 219.71954009 420.758308853 238.29219164 503 222 c 0
 551.285545038 212.434567405 597.240652552 191.099033913 635.461787377 160.08071331 c 0
 673.682922202 129.062392707 704.064075775 88.4514099005 722.982 43.008 c 1
 821.286 98.304 l 1
 766.552252783 190.924385786 675.61590586 261.312305577 572.454 291.84 c 0
 460.261336439 325.040078276 335.761716271 311.066941335 231.462 258.048 c 0
 147.691158727 215.464554159 76.5947005838 148.442002811 28.7106 67.584 c 1
  Spiro
    28.7106 67.584 v
    127.014 21.504 v
    262 175 o
    503 222 o
    722.982 43.008 v
    821.286 98.304 v
    572.454 291.84 o
    231.462 258.048 o
    0 0 z
  EndSpiro
28.7099609375 95.232421875 m 1048
  Spiro
    28.7106 95.232 {
    0 0 z
  EndSpiro
EndSplineSet
Validated: 524329
EndChar

StartChar: uniE009
Encoding: 57353 57353 9
Width: 400
VWidth: 0
InSpiro: 1
Flags: HW
LayerCount: 2
Fore
SplineSet
79 0 m 1
 39 118 l 1
 128.543281367 133.247155033 210.077363165 190.337249717 254.949 269.312 c 0
 285.029547773 322.254212861 298.860621742 384.30940704 293.963345142 445.003178869 c 0
 289.066068542 505.696950699 265.429888952 564.768009865 227 612 c 0
 184.651783744 664.0477833 124.472786379 701.314721307 59 716 c 1
 99 824 l 1
 187.576616463 798.87625757 266.299794213 740.853812858 317 664 c 0
 357.958487735 601.913152374 380.724267405 528.237555645 383.588122199 453.91277713 c 0
 386.451976992 379.587998614 369.709939625 304.801453692 337 238 c 0
 284.369764809 130.516578775 190.174040603 44.3053065715 79 0 c 1
  Spiro
    79 0 v
    39 118 v
    254.949 269.312 o
    227 612 o
    59 716 v
    99 824 v
    317 664 o
    337 238 o
    0 0 z
  EndSpiro
EndSplineSet
Validated: 524321
EndChar

StartChar: uniE00A
Encoding: 57354 57354 10
Width: 550
VWidth: 0
InSpiro: 1
Flags: HW
LayerCount: 2
Fore
SplineSet
332 824 m 1
 410 748 l 1
 310.076624057 649.738595808 212.935899602 543.432689817 157.501 414.72 c 0
 144.270044674 383.99942756 134.146721333 351.789753072 129.563696077 318.656572883 c 0
 124.980670822 285.523392695 126.071115057 251.363330624 135.212110946 219.187968247 c 0
 144.353106834 187.012605871 161.806585669 156.905944982 186.837979679 134.719438637 c 0
 211.869373689 112.532932292 244.558691502 98.7004540167 278 98 c 0
 303.647923932 97.462784438 329.476686076 104.652318883 350.890054606 118.779323193 c 0
 372.303423136 132.906327503 389.140381527 153.924872522 398 178 c 0
 406.321404967 200.612586081 407.562144593 225.792878562 401.380517297 249.081552073 c 0
 395.198890002 272.370225584 381.613959642 293.643885213 363.044911232 308.998535032 c 0
 344.475862822 324.353184851 321.015824352 333.704797357 296.974305521 335.311098139 c 0
 272.93278669 336.91739892 248.433124757 330.769582709 228 318 c 1
 198 408 l 1
 238.941406868 424.090862745 284.909502262 427.105791689 327.601340743 416.498172382 c 0
 370.293179224 405.890553075 409.506914986 381.710166145 438.142462876 348.316752763 c 0
 466.778010765 314.923339382 484.698024276 272.471406339 488.607901081 228.655569891 c 0
 492.517777887 184.839733444 482.389835597 139.865682645 460 102 c 0
 428.28394819 48.3618235438 371.619015853 10.2047949764 309.988418533 1.00526292308 c 0
 248.357821214 -8.19426913025 183.508708188 11.6777411065 136 52 c 0
 89.4929546885 91.4721134912 59.9278655131 148.798790877 48.5329451058 208.724651705 c 0
 37.1380246985 268.650512534 42.7558605791 330.935888897 58 390 c 0
 101.242318856 557.544329971 208.366424389 702.939107772 332 824 c 1
  Spiro
    332 824 v
    410 748 v
    157.501 414.72 o
    278 98 o
    398 178 o
    228 318 v
    198 408 v
    460 102 o
    136 52 o
    58 390 o
    0 0 z
  EndSpiro
EndSplineSet
Validated: 524321
EndChar

StartChar: uniE00B
Encoding: 57355 57355 11
Width: 600
VWidth: 0
InSpiro: 1
Flags: HW
LayerCount: 2
Fore
SplineSet
0 0 m 1
 205 826 l 1
 313 824 l 1
 600 0 l 1
 497 0 l 1
 271 673 l 1
 107 0 l 1
 0 0 l 1
  Spiro
    0 0 v
    205 826 v
    313 824 v
    600 0 v
    497 0 v
    271 673 v
    107 0 v
    0 0 z
  EndSpiro
EndSplineSet
Validated: 1
EndChar

StartChar: uniE00C
Encoding: 57356 57356 12
Width: 600
VWidth: 0
InSpiro: 1
Flags: HW
LayerCount: 2
Fore
SplineSet
0 817 m 1
 557 817 l 1
 551.187830275 623.705990655 533.575274421 430.76752045 504.293 239.616 c 0
 492.003977404 159.394589587 477.661718996 79.4877213157 461.285 0 c 1
 369 0 l 1
 405.210184652 150.072305494 429.313900086 303.063943737 441 457 c 0
 447.464807347 542.158175505 450.134999691 627.604330525 449 713 c 1
 58.8532 712.704 l 1
 0 817 l 1
  Spiro
    0 817 v
    557 817 v
    504.293 239.616 o
    461.285 0 v
    369 0 v
    441 457 o
    449 713 v
    58.8532 712.704 v
    0 0 z
  EndSpiro
EndSplineSet
Validated: 524321
EndChar

StartChar: uniE00D
Encoding: 57357 57357 13
Width: 700
VWidth: 0
InSpiro: 1
Flags: HW
LayerCount: 2
Fore
SplineSet
21.052734375 648.192382812 m 1
 53.6171875 664.627929688 90.0751953125 673.1875 126.551757812 673.30078125 c 0
 163.028320312 673.413085938 199.23828125 665.021484375 233.021484375 651.263671875 c 0
 289.419921875 628.296875 338.549804688 589.93359375 395.079101562 567.290039062 c 0
 423.34375 555.967773438 453.883789062 548.997070312 484.21875 551.6171875 c 0
 514.553710938 554.23828125 544.494140625 567.133789062 564.796875 589.82421875 c 0
 578.830078125 605.506835938 587.979492188 625.620117188 589.94140625 646.573242188 c 0
 591.90234375 667.526367188 586.5859375 689.1171875 574.965820312 706.663085938 c 0
 563.345703125 724.208984375 545.552734375 737.524414062 525.517578125 743.963867188 c 0
 505.482421875 750.404296875 483.416992188 749.984375 463.420898438 743.423828125 c 0
 431.32421875 732.89453125 405.583984375 706.958007812 391.125976562 676.428710938 c 0
 376.66796875 645.899414062 372.598632812 611.271484375 374.333007812 577.536132812 c 0
 379.426757812 478.439453125 424.327148438 385.447265625 437.291992188 287.0703125 c 0
 450.256835938 188.692382812 433.993164062 85.44921875 383.548828125 0 c 1
 291 0 l 1
 320.989257812 48.0830078125 339.8671875 102.94921875 346.525390625 159.224609375 c 0
 353.18359375 215.5 347.409179688 272.70703125 335 328 c 0
 320.217773438 393.868164062 296.173828125 457.6015625 285.229492188 524.21484375 c 0
 279.756835938 557.521484375 277.770507812 591.588867188 282.081054688 625.065429688 c 0
 286.392578125 658.541992188 297.158203125 691.34765625 315 720 c 0
 335.16015625 752.375 364.334960938 779.110351562 398.48046875 796.1015625 c 0
 432.625 813.092773438 471.500976562 820.401367188 509.500976562 817.15234375 c 0
 544.559570312 814.154296875 578.920898438 802.177734375 607.782226562 782.049804688 c 0
 636.643554688 761.921875 659.860351562 733.50390625 672.700195312 700.743164062 c 0
 685.5390625 667.982421875 687.709960938 631.030273438 678.111328125 597.177734375 c 0
 668.513671875 563.325195312 647.20703125 533.03515625 619 512 c 0
 591.071289062 491.171875 556.87890625 479.479492188 522.194335938 476.1953125 c 0
 487.508789062 472.911132812 452.438476562 477.703125 418.7109375 486.435546875 c 0
 351.254882812 503.900390625 288.2265625 535.671875 221 554 c 0
 154.01171875 572.262695312 82.794921875 576.75 14.908203125 562.17578125 c 1
 21.052734375 648.192382812 l 1
  Spiro
    21.0526 648.192 v
    233.021 651.264 o
    564.797 589.824 o
    463.421 743.424 o
    374.333 577.536 o
    383.549 0 v
    291 0 v
    335 328 o
    315 720 o
    509.501 817.152 o
    619 512 o
    221 554 o
    14.9086 562.176 v
    0 0 z
  EndSpiro
EndSplineSet
Validated: 524325
EndChar

StartChar: uniE00E
Encoding: 57358 57358 14
Width: 400
VWidth: 0
InSpiro: 1
Flags: HW
LayerCount: 2
Fore
SplineSet
60 765 m 1
 400 518 l 1
 400 422 l 1
 60 670 l 1
 60 765 l 1
  Spiro
    60 765 v
    400 518 v
    400 422 v
    60 670 v
    0 0 z
  EndSpiro
400 820 m 1
 391.442849104 741.557884911 366.036662762 664.995999044 326 597 c 0
 284.747751291 526.939518676 227.996848814 466.061277836 161 420 c 1
 211.480863904 371.743267083 255.933893612 317.187276078 293 258 c 0
 342.64397788 178.728338887 378.969926646 91.1386680289 400 0 c 1
 287 0 l 1
 269.985024721 96.2856737741 230.273726269 188.484949311 172 267 c 0
 125.197210888 330.059694219 66.536142104 384.287077571 0 426 c 1
 93.437337685 468.727504116 174.692158069 537.724054184 232 623 c 0
 271.816219085 682.247838113 300.158333037 749.176203591 315 819 c 1
 400 820 l 1
  Spiro
    400 820 v
    326 597 o
    161 420 v
    293 258 o
    400 0 v
    287 0 v
    172 267 o
    0 426 v
    232 623 o
    315 819 v
    0 0 z
  EndSpiro
EndSplineSet
Validated: 524293
EndChar

StartChar: uniE00F
Encoding: 57359 57359 15
Width: 600
VWidth: 0
InSpiro: 1
Flags: HW
LayerCount: 2
Fore
SplineSet
292.9765625 369.6640625 m 1
 261.990234375 373.295898438 229.891601562 366.819335938 202.767578125 351.404296875 c 0
 175.643554688 335.989257812 153.590820312 311.67578125 141.30078125 283 c 0
 133.083007812 263.827148438 129.212890625 242.770507812 130.375 221.943359375 c 0
 131.537109375 201.116210938 137.768554688 180.553710938 148.633789062 162.747070312 c 0
 159.498046875 144.940429688 174.994140625 129.961914062 193.249023438 119.8671875 c 0
 211.502929688 109.7734375 232.444335938 104.620117188 253.30078125 105 c 0
 281.1796875 105.5078125 308.583007812 115.977539062 330.478515625 133.244140625 c 0
 352.374023438 150.510742188 368.770507812 174.243164062 379.065429688 200.157226562 c 0
 399.65625 251.985351562 396.4921875 310.366210938 385.30078125 365 c 0
 371.14453125 434.103515625 345.802734375 500.4765625 317.30078125 565 c 0
 282.907226562 642.858398438 241.905273438 717.776367188 195.30078125 789 c 1
 292.30078125 827 l 1
 563.30078125 653 l 1
 563.30078125 518 l 1
 351.30078125 687 l 1
 391.434570312 618.908203125 423.716796875 546.03515625 445.30078125 470 c 0
 459.923828125 418.484375 469.543945312 365.33984375 470.645507812 311.80078125 c 0
 471.748046875 258.26171875 464.072265625 204.067382812 443.50390625 154.624023438 c 0
 425.271484375 110.79296875 396.541015625 70.865234375 358.446289062 42.537109375 c 0
 320.352539062 14.2099609375 272.828125 -1.84765625 225.392578125 0 c 0
 184.361328125 1.59765625 143.94921875 16.5986328125 111.889648438 42.255859375 c 0
 79.830078125 67.9130859375 56.3505859375 103.912109375 44.96484375 143.365234375 c 0
 33.580078125 182.817382812 34.1640625 225.467773438 45.4365234375 264.952148438 c 0
 56.7080078125 304.436523438 78.4853515625 340.74609375 107.30078125 370 c 0
 151.553710938 414.926757812 212.442382812 442.934570312 275.30078125 448 c 1
 292.9765625 369.6640625 l 1
  Spiro
    292.976 369.664 v
    141.3 283 o
    253.3 105 o
    385.3 365 o
    317.3 565 o
    195.3 789 v
    292.3 827 v
    563.3 653 v
    563.3 518 v
    351.3 687 v
    445.3 470 o
    443.504 154.624 o
    225.392 0 o
    107.3 370 o
    275.3 448 v
    0 0 z
  EndSpiro
EndSplineSet
Validated: 524321
EndChar

StartChar: uniE010
Encoding: 57360 57360 16
Width: 400
VWidth: 0
InSpiro: 1
Flags: HW
LayerCount: 2
Fore
SplineSet
49 410 m 1
 368.17 179.2 l 1
 373 90 l 1
 47 324 l 1
 49 410 l 1
  Spiro
    49 410 v
    368.17 179.2 v
    373 90 v
    47 324 v
    0 0 z
  EndSpiro
302.634 794.624 m 1
 275 716 l 1
 260.169529781 729.190459483 241.652780179 738.191768997 222.118761237 741.706476991 c 0
 202.584742295 745.221184984 182.0917248 743.238806938 163.593578662 736.04508344 c 0
 145.095432524 728.851359942 128.647338479 716.467750167 116.620129915 700.679231476 c 0
 104.59292135 684.890712786 97.0224759263 665.744382984 95 646 c 0
 92.8977156319 625.476488612 96.8079099209 604.373170961 106.123718001 585.965296584 c 0
 115.439526082 567.557422207 130.12854312 551.90902249 147.911023484 541.448739923 c 0
 165.693503848 530.988457356 186.50759157 525.752677802 207.1229258 526.553997879 c 0
 227.73826003 527.355317956 248.08313078 534.190950289 265 546 c 1
 269 0 l 1
 185 0 l 1
 191 440 l 1
 139.965616279 444.107575788 91.0165588381 469.782532175 58.6255729445 509.433566631 c 0
 26.2345870509 549.084601087 10.8423953232 602.172208338 17 653 c 0
 24.567325095 715.464293106 65.2214828532 772.952153591 121.593600682 800.902764566 c 0
 177.96571851 828.853375541 248.333742046 826.412902286 302.634 794.624 c 1
  Spiro
    302.634 794.624 v
    275 716 v
    95 646 o
    265 546 v
    269 0 v
    185 0 v
    191 440 v
    17 653 o
    0 0 z
  EndSpiro
EndSplineSet
Validated: 524325
EndChar

StartChar: uniE011
Encoding: 57361 57361 17
Width: 700
VWidth: 0
InSpiro: 1
Flags: HW
LayerCount: 2
Fore
SplineSet
717 58 m 1
 431 382 l 1
 371.922 538.624 l 1
 718 185 l 1
 717 58 l 1
  Spiro
    717 58 v
    431 382 v
    371.922 538.624 v
    718 185 v
    0 0 z
  EndSpiro
488.658203125 260.095703125 m 0
 482.03515625 194.151367188 457.340820312 129.096679688 413.322265625 79.5498046875 c 0
 391.313476562 54.7763671875 364.498046875 34.1474609375 334.439453125 20.1982421875 c 0
 304.379882812 6.2490234375 271.125976562 -0.8896484375 238 0 c 0
 204.137695312 0.9091796875 170.591796875 10.2119140625 140.860351562 26.4453125 c 0
 111.12890625 42.6787109375 85.26171875 65.6943359375 64.7744140625 92.6708984375 c 0
 23.798828125 146.624023438 4.3916015625 215.251953125 4 283 c 0
 3.5732421875 356.844726562 25.5771484375 431.9375 71.9541015625 489.403320312 c 0
 95.1416015625 518.13671875 124.444335938 542.102539062 157.825195312 557.883789062 c 0
 191.205078125 573.665039062 228.587890625 581.060546875 265.42578125 578.559570312 c 0
 301.516601562 576.110351562 336.841796875 564.19140625 367.385742188 544.8125 c 0
 397.9296875 525.432617188 423.653320312 498.78125 443.08203125 468.268554688 c 0
 481.94140625 407.243164062 495.88671875 332.081054688 488.658203125 260.095703125 c 0
  Spiro
    488.658 260.096 o
    238 0 o
    4 283 o
    265.426 578.56 o
    0 0 z
  EndSpiro
370 455 m 0
 337.83984375 476.961914062 296.83984375 484.40234375 258.37109375 478.340820312 c 0
 219.90234375 472.279296875 183.973632812 453.86328125 154 429 c 0
 130.49609375 409.502929688 110.340820312 385.928710938 95.013671875 359.515625 c 0
 79.6875 333.102539062 69.2568359375 303.666015625 66.1591796875 273.286132812 c 0
 63.0625 242.90625 67.544921875 211.569335938 80.578125 183.952148438 c 0
 93.611328125 156.3359375 115.288085938 132.799804688 142 118 c 0
 180.763671875 96.5234375 228.706054688 94.5390625 270.833984375 108.288085938 c 0
 312.962890625 122.037109375 349.771484375 149.838867188 378 184 c 0
 410.442382812 223.260742188 432.629882812 272.317382812 433.895507812 323.232421875 c 0
 434.52734375 348.689453125 429.694335938 374.391601562 418.833007812 397.423828125 c 0
 407.970703125 420.456054688 391.029296875 440.639648438 370 455 c 0
  Spiro
    370 455 o
    154 429 o
    142 118 o
    378 184 o
    0 0 z
  EndSpiro
EndSplineSet
Validated: 524325
EndChar

StartChar: uniE012
Encoding: 57362 57362 18
Width: 500
VWidth: 0
InSpiro: 1
Flags: HW
LayerCount: 2
Fore
SplineSet
126 448 m 1
 500 282 l 1
 500 200 l 1
 124 370 l 1
 126 448 l 1
  Spiro
    126 448 v
    500 282 v
    500 200 v
    124 370 v
    0 0 z
  EndSpiro
25 551 m 1
 5.25969187001 583.846411 -2.17177036093 623.889756608 4.42119271907 661.640244266 c 0
 11.0141557991 699.390731925 31.5496247733 734.479765914 61 759 c 0
 96.9802344932 788.956962024 145.678209942 802.512340709 192.202385908 797.268496843 c 0
 238.726561875 792.024652978 282.427581304 768.630854705 315 735 c 0
 342.181881784 706.93484692 361.895297157 672.09644553 374.47552758 635.106645352 c 0
 387.055758004 598.116845174 392.686866562 559.007612095 393.942374486 519.957244432 c 0
 396.453390333 441.856509108 382.545114425 364.283506596 371 287 c 0
 356.800947176 191.950912381 346.626830832 96.1030847739 347 0 c 1
 255 0 l 1
 251.427656693 88.18546718 261.481205044 176.498381046 279 263 c 0
 292.948457131 331.872552409 311.748893453 400.088749281 317.431414014 470.129429544 c 0
 320.272674294 505.149769675 319.513577331 540.732929439 311.505062635 574.943464005 c 0
 303.496547938 609.153998571 287.855843043 642.166875961 263 667 c 0
 242.216492954 687.764510282 214.739672344 702.402888762 185.488556916 705.13991245 c 0
 156.237441489 707.876936139 125.608100689 697.938606411 105 677 c 0
 89.8623299422 661.619557129 80.4364599301 640.671151056 79.2893156102 619.121414687 c 0
 78.1421712903 597.571678318 85.3049618551 575.677919771 99 559 c 1
 25 551 l 1
  Spiro
    25 551 v
    61 759 o
    315 735 o
    371 287 o
    347 0 v
    255 0 v
    279 263 o
    263 667 o
    105 677 o
    99 559 v
    0 0 z
  EndSpiro
EndSplineSet
Validated: 524325
EndChar

StartChar: uniE013
Encoding: 57363 57363 19
Width: 400
VWidth: 0
Flags: HW
LayerCount: 2
Fore
SplineSet
0 613 m 1
 400 327 l 1
 400 423 l 1
 0 707 l 1
 0 613 l 1
123 821 m 1
 134 0 l 1
 251 0 l 1
 211 821 l 1
 123 821 l 1
EndSplineSet
Validated: 5
EndChar

StartChar: uniE014
Encoding: 57364 57364 20
Width: 500
VWidth: 0
Flags: HW
LayerCount: 2
Fore
SplineSet
0 602 m 1
 359 346 l 5
 363 234 l 1
 0 486 l 1
 0 602 l 1
469.239257812 551 m 1
 395.239257812 559 l 1
 408.934570312 575.677734375 416.096679688 597.571289062 414.950195312 619.12109375 c 0
 413.802734375 640.670898438 404.376953125 661.619140625 389.239257812 677 c 0
 368.630859375 697.938476562 338.001953125 707.876953125 308.750976562 705.139648438 c 0
 279.5 702.403320312 252.022460938 687.764648438 231.239257812 667 c 0
 206.383789062 642.166992188 190.743164062 609.154296875 182.734375 574.943359375 c 0
 174.725585938 540.733398438 173.966796875 505.149414062 176.807617188 470.129882812 c 0
 182.490234375 400.088867188 201.291015625 331.872070312 215.239257812 263 c 0
 232.7578125 176.498046875 242.811523438 88.185546875 239.239257812 0 c 1
 147.239257812 0 l 1
 147.612304688 96.103515625 137.438476562 191.951171875 123.239257812 287 c 0
 111.694335938 364.283203125 97.7861328125 441.856445312 100.296875 519.95703125 c 0
 101.552734375 559.0078125 107.18359375 598.1171875 119.763671875 635.106445312 c 0
 132.34375 672.096679688 152.057617188 706.934570312 179.239257812 735 c 0
 211.811523438 768.630859375 255.512695312 792.024414062 302.037109375 797.268554688 c 0
 348.561523438 802.512695312 397.258789062 788.95703125 433.239257812 759 c 0
 462.689453125 734.479492188 483.225585938 699.390625 489.818359375 661.640625 c 0
 496.411132812 623.889648438 488.979492188 583.846679688 469.239257812 551 c 1
  Spiro
    395.239 559 v
    389.239 677 o
    231.239 667 o
    215.239 263 o
    239.239 0 v
    147.239 0 v
    123.239 287 o
    179.239 735 o
    433.239 759 o
    469.239 551 v
    0 0 z
  EndSpiro
EndSplineSet
Validated: 524325
EndChar

StartChar: uniE015
Encoding: 57365 57365 21
Width: 850
VWidth: 0
Flags: HW
LayerCount: 2
Fore
SplineSet
493.5 282 m 1
 848.5 18 l 1
 850 110 l 1
 493.5 378 l 1
 493.5 282 l 1
828.5 286 m 1
 748 347 l 1
 625 118 229 214 98 337 c 1
 21.5 258 l 1
 173.5 98 717.5 40 828.5 286 c 1
EndSplineSet
Validated: 524325
EndChar

StartChar: uniE016
Encoding: 57366 57366 22
Width: 850
VWidth: 0
Flags: HW
LayerCount: 2
Fore
SplineSet
93 356 m 1
 353 105 l 1
 355 0 l 1
 91 264 l 1
 93 356 l 1
28.7106 67.584 m 1
 76.5947005838 148.442002811 147.691158727 215.464554159 231.462 258.048 c 0
 335.761716271 311.066941335 460.261336439 325.040078276 572.454 291.84 c 0
 675.61590586 261.312305577 766.552252783 190.924385786 821.286 98.304 c 1
 722.982 43.008 l 1
 704.064075775 88.4514099005 673.682922202 129.062392707 635.461787377 160.08071331 c 0
 597.240652552 191.099033913 551.285545038 212.434567405 503 222 c 0
 420.758308853 238.29219164 332.917515504 219.71954009 262 175 c 0
 203.57694957 138.159285441 156.235420193 84.0867426107 127.014 21.504 c 1
 28.7106 67.584 l 1
  Spiro
    231.462 258.048 o
    572.454 291.84 o
    821.286 98.304 v
    722.982 43.008 v
    503 222 o
    262 175 o
    127.014 21.504 v
    28.7106 67.584 v
    0 0 z
  EndSpiro
28.7099609375 95.232421875 m 1048
  Spiro
    28.7106 95.232 {
    0 0 z
  EndSpiro
EndSplineSet
Validated: 524325
EndChar

StartChar: uniE017
Encoding: 57367 57367 23
Width: 500
VWidth: 0
Flags: HW
LayerCount: 2
Fore
SplineSet
29 506 m 5
 425 151 l 1
 425 27 l 1
 23 390 l 5
 29 506 l 5
60.7099609375 19.408203125 m 1
 5.482421875 117 l 1
 86.458984375 141.278320312 157.416015625 197.6796875 198.94921875 271.311523438 c 0
 230.65234375 327.517578125 245.2421875 393.397460938 239.206054688 457.645507812 c 0
 233.168945312 521.892578125 206.296975199 584.151457855 163 632 c 0
 130.412109375 668.013671875 60.7841796875 707.791015625 15 724 c 1
 91 820 l 1
 149.272460938 786.286132812 225.150664844 722.983570954 261 666 c 0
 300.5078125 603.201171875 322.836914062 529.850585938 325.955078125 455.723632812 c 0
 329.072265625 381.596679688 313.147460938 306.866210938 281 240 c 0
 235.118164062 144.567382812 155.98828125 65.6103515625 60.7099609375 19.408203125 c 1
EndSplineSet
Validated: 524325
EndChar

StartChar: uniE018
Encoding: 57368 57368 24
Width: 550
VWidth: 0
InSpiro: 1
Flags: HW
LayerCount: 2
Fore
SplineSet
0 829 m 1
 453 631 l 1
 392.195373911 615.634445446 334.164413531 589.111158739 283.113009031 552.682366292 c 0
 232.061604531 516.253573846 187.582029138 469.75121393 157.501 414.72 c 0
 141.180834728 384.863358382 129.239015464 352.464047165 123.885965096 318.861789875 c 0
 118.532914728 285.259532585 119.89955175 250.383005273 129.793294473 217.827196296 c 0
 139.687037195 185.271387319 158.329104684 155.133223616 184.384991014 133.250407737 c 0
 210.440877344 111.367591858 243.974228811 98.1172101353 278 98 c 0
 303.571366054 97.911913142 329.200622194 105.238680582 350.562921611 119.294095369 c 0
 371.925221027 133.349510155 388.868695522 154.114401835 398 178 c 0
 406.67321247 200.687324505 408.233076703 226.065582181 402.212877771 249.596338916 c 0
 396.192678839 273.127095651 382.605766406 294.674380359 363.90342932 310.171538009 c 0
 345.201092234 325.668695659 321.483438499 335.021578937 297.235304893 336.424192343 c 0
 272.987171288 337.826805749 248.342948794 331.270408512 228 318 c 1
 198 408 l 1
 238.962604881 425.610432546 285.585744897 429.753966539 329.012314625 419.644793732 c 0
 372.438884352 409.535620924 412.437032336 385.228006116 441.419655971 351.344826507 c 0
 470.402279605 317.461646898 488.216068471 274.186105361 491.515129281 229.720629642 c 0
 494.814190091 185.255153923 483.587250046 139.837864216 460 102 c 0
 427.309991042 49.559799563 370.738178245 12.807065567 309.608126662 3.76670600739 c 0
 248.478075079 -5.27365355219 184.217223275 13.3514465063 136 52 c 0
 87.9465343805 90.517293415 56.1590187519 147.533165508 43.9688331958 207.899686247 c 0
 31.7786476397 268.266206986 38.2447625738 331.669493022 58 390 c 0
 92.2731956514 491.197107125 165.468581212 577.886428122 257 633 c 1
 0 739 l 1
 0 829 l 1
  Spiro
    0 829 v
    453 631 v
    157.501 414.72 o
    278 98 o
    398 178 o
    228 318 v
    198 408 v
    460 102 o
    136 52 o
    58 390 o
    257 633 v
    0 739 v
    0 0 z
  EndSpiro
EndSplineSet
Validated: 524321
EndChar

StartChar: uniE019
Encoding: 57369 57369 25
Width: 600
VWidth: 0
Flags: HW
LayerCount: 2
Fore
SplineSet
0 565 m 1
 547 98 l 1
 495 0 l 1
 0 426 l 1
 0 565 l 1
0 0 m 1
 239 822 l 1
 353 820 l 1
 600 0 l 1
 495 0 l 1
 303 672 l 1
 115 0 l 1
 145 0 l 1
 0 0 l 1
EndSplineSet
Validated: 5
EndChar

StartChar: uniE01A
Encoding: 57370 57370 26
Width: 600
VWidth: 0
Flags: HW
LayerCount: 2
Fore
SplineSet
286 538 m 1
 630 166 l 1
 632 56 l 1
 288 406 l 1
 286 538 l 1
0 817 m 1
 557 817 l 1
 551.187830275 623.705990655 533.575274421 430.76752045 504.293 239.616 c 0
 492.003977404 159.394589587 477.661718996 79.4877213157 461.285 0 c 1
 369 0 l 1
 405.210184652 150.072305494 429.313900086 303.063943737 441 457 c 0
 447.464807347 542.158175505 450.134999691 627.604330525 449 713 c 1
 58.8532 712.704 l 1
 0 817 l 1
  Spiro
    0 817 v
    557 817 v
    504.293 239.616 o
    461.285 0 v
    369 0 v
    441 457 o
    449 713 v
    58.8532 712.704 v
    0 0 z
  EndSpiro
EndSplineSet
Validated: 524325
EndChar

StartChar: uniE01B
Encoding: 57371 57371 27
Width: 700
VWidth: 0
InSpiro: 1
Flags: HW
LayerCount: 2
Fore
SplineSet
176.515625 440 m 1
 606.515625 112 l 1
 606.515625 0 l 1
 182.515625 320 l 1
 176.515625 440 l 1
  Spiro
    176.516 440 v
    606.516 112 v
    606.516 0 v
    182.516 320 v
    0 0 z
  EndSpiro
21.568359375 648.192382812 m 1
 54.1328125 664.627929688 90.5908203125 673.1875 127.067382812 673.30078125 c 0
 163.543945312 673.413085938 199.75390625 665.021484375 233.537109375 651.263671875 c 0
 289.935546875 628.296875 339.065429688 589.93359375 395.594726562 567.290039062 c 0
 423.859375 555.967773438 454.399414062 548.997070312 484.734375 551.6171875 c 0
 515.069335938 554.23828125 545.009765625 567.133789062 565.3125 589.82421875 c 0
 579.345703125 605.506835938 588.495117188 625.620117188 590.45703125 646.573242188 c 0
 592.41796875 667.526367188 587.102539062 689.1171875 575.482421875 706.663085938 c 0
 563.862304688 724.208984375 546.068359375 737.524414062 526.033203125 743.963867188 c 0
 505.998046875 750.404296875 483.932617188 749.984375 463.936523438 743.423828125 c 0
 431.83984375 732.89453125 406.099609375 706.958007812 391.641601562 676.428710938 c 0
 377.18359375 645.899414062 373.115234375 611.271484375 374.848632812 577.536132812 c 0
 379.943359375 478.439453125 424.842773438 385.447265625 437.807617188 287.0703125 c 0
 450.772460938 188.692382812 434.508789062 85.44921875 384.065429688 0 c 1
 291.515625 0 l 1
 321.504882812 48.0830078125 340.3828125 102.94921875 347.041015625 159.224609375 c 0
 353.700195312 215.5 347.924804688 272.70703125 335.515625 328 c 0
 320.733398438 393.868164062 296.690429688 457.6015625 285.745117188 524.21484375 c 0
 280.272460938 557.521484375 278.286132812 591.588867188 282.596679688 625.065429688 c 0
 286.908203125 658.541992188 297.674804688 691.34765625 315.515625 720 c 0
 335.67578125 752.375 364.850585938 779.110351562 398.99609375 796.1015625 c 0
 433.141601562 813.092773438 472.016601562 820.401367188 510.016601562 817.15234375 c 0
 545.076171875 814.154296875 579.436523438 802.177734375 608.297851562 782.049804688 c 0
 637.159179688 761.921875 660.376953125 733.50390625 673.215820312 700.743164062 c 0
 686.055664062 667.982421875 688.225585938 631.030273438 678.627929688 597.177734375 c 0
 669.030273438 563.325195312 647.72265625 533.03515625 619.515625 512 c 0
 591.586914062 491.171875 557.39453125 479.479492188 522.709960938 476.1953125 c 0
 488.025390625 472.911132812 452.955078125 477.703125 419.2265625 486.435546875 c 0
 351.771484375 503.900390625 288.7421875 535.671875 221.515625 554 c 0
 154.528320312 572.262695312 83.310546875 576.75 15.4248046875 562.17578125 c 1
 21.568359375 648.192382812 l 1
  Spiro
    21.5686 648.192 v
    233.537 651.264 o
    565.313 589.824 o
    463.937 743.424 o
    374.849 577.536 o
    384.065 0 v
    291.516 0 v
    335.516 328 o
    315.516 720 o
    510.017 817.152 o
    619.516 512 o
    221.516 554 o
    15.4246 562.176 v
    0 0 z
  EndSpiro
EndSplineSet
Validated: 524325
EndChar

StartChar: uniE01C
Encoding: 57372 57372 28
Width: 400
VWidth: 0
InSpiro: 1
Flags: HW
LayerCount: 2
Fore
SplineSet
6 616 m 1
 501 614 l 1
 457 522 l 1
 -46 524 l 1
 6 616 l 1
  Spiro
    6 616 v
    501 614 v
    457 522 v
    -46 524 v
    0 0 z
  EndSpiro
400 820 m 1
 391.442849104 741.557884911 366.036662762 664.995999044 326 597 c 0
 284.747751291 526.939518676 227.996848814 466.061277836 161 420 c 1
 211.480863904 371.743267083 255.933893612 317.187276078 293 258 c 0
 342.64397788 178.728338887 378.969926646 91.1386680289 400 0 c 1
 290 0 l 1
 270.911278744 88.7320179754 233.96007642 173.582927015 182 248 c 0
 133.135676106 317.983345062 71.0518071794 378.702733353 0 426 c 1
 97.0365397312 468.863159699 179.881921107 543.175111233 233 635 c 0
 265.504910811 691.1910348 287.027072634 753.707790572 296 818 c 1
 400 820 l 1
  Spiro
    400 820 v
    326 597 o
    161 420 v
    293 258 o
    400 0 v
    290 0 v
    182 248 o
    0 426 v
    233 635 o
    296 818 v
    0 0 z
  EndSpiro
EndSplineSet
Validated: 524293
EndChar

StartChar: uniE01D
Encoding: 57373 57373 29
Width: 600
VWidth: 0
InSpiro: 1
Flags: HW
LayerCount: 2
Fore
SplineSet
240 610 m 1
 600 624 l 1
 572 536 l 1
 184 522 l 1
 240 610 l 1
  Spiro
    240 610 v
    600 624 v
    572 536 v
    184 522 v
    0 0 z
  EndSpiro
329.676 369.664 m 1
 302.333340832 371.028774581 274.677202191 365.787421118 249.75139292 354.46542252 c 0
 224.82558365 343.143423923 202.631864419 325.745452536 186 304 c 0
 171.514286868 285.06054863 161.271162393 262.80806824 156.903460559 239.367464925 c 0
 152.535758725 215.926861609 154.135155888 191.311061157 162.158937158 168.85760625 c 0
 170.182718429 146.404151344 184.686055968 126.240097921 203.712970064 111.869459693 c 0
 222.73988416 97.4988214639 246.180039188 89.071526969 270 88 c 0
 296.549843713 86.8056708495 323.258432567 94.7459376548 345.465715423 109.345842157 c 0
 367.67299828 123.945746659 385.357930207 144.917891304 397.672862212 168.469177321 c 0
 422.302726222 215.571749354 425.785028263 270.981549868 422 324 c 0
 416.542365262 400.447338074 399.069843652 475.518713585 381 550 c 0
 360.570782232 634.206285847 336.714923929 717.572065692 310 800 c 1
 423 820 l 1
 439.875648911 713.350784096 462.780766758 607.77315104 483.276 501.76 c 0
 494.41569442 444.139084293 504.347047708 386.056806774 506.424341118 327.405740537 c 0
 508.501634527 268.754674301 502.252695164 209.012581156 480.204 154.624 c 0
 462.334168277 110.543623102 433.743506519 70.3238006836 395.556720111 41.9657355677 c 0
 357.369933704 13.6076704519 309.605862245 -2.20077436239 262.092 0 c 0
 221.186423194 1.89468800178 181.002541302 17.1056810769 149.128460123 42.8136371516 c 0
 117.254378945 68.5215932264 93.8985274333 104.426165284 82.50729266 143.759304325 c 0
 71.1160578866 183.092443366 71.5719129497 225.61237594 82.6736669575 265.028199088 c 0
 93.7754209652 304.444022236 115.350672665 340.74129019 144 370 c 0
 188.136452326 415.07525205 249.102323315 443.133066785 312 448 c 1
 329.676 369.664 l 1
  Spiro
    329.676 369.664 v
    186 304 o
    270 88 o
    422 324 o
    381 550 o
    310 800 v
    423 820 v
    483.276 501.76 o
    480.204 154.624 o
    262.092 0 o
    144 370 o
    312 448 v
    0 0 z
  EndSpiro
EndSplineSet
Validated: 524325
EndChar

StartChar: uniE01E
Encoding: 57374 57374 30
Width: 400
VWidth: 0
InSpiro: 1
Flags: HW
LayerCount: 2
Fore
SplineSet
65 290 m 1
 437 306 l 1
 383 214 l 1
 25 204 l 1
 65 290 l 1
  Spiro
    65 290 v
    437 306 v
    383 214 v
    25 204 v
    0 0 z
  EndSpiro
316.965 794.624 m 1
 298 728 l 1
 281.471411402 740.66828535 261.597294315 748.930430942 240.959089437 751.713270167 c 0
 220.320884559 754.496109391 198.968214577 751.792951163 179.674568801 743.954907567 c 0
 160.380923025 736.11686397 143.192691273 723.162780869 130.342445727 706.77525866 c 0
 117.492200181 690.387736451 109.010838089 670.606177441 106 650 c 0
 102.77141692 627.903575728 105.862116682 604.919623893 114.813162867 584.461019677 c 0
 123.764209052 564.00241546 138.54720017 546.134073607 156.967017475 533.509255004 c 0
 175.38683478 520.884436402 197.385032558 513.543199349 219.695109741 512.575640358 c 0
 242.005186924 511.608081367 264.556354079 517.017270484 284 528 c 1
 278 0 l 1
 187.941 0 l 1
 203 437 l 1
 151.002932778 441.470136303 101.286242861 468.15353434 68.8208274021 509.015177936 c 0
 36.3554119427 549.876821531 21.6008141178 604.338320134 29 656 c 0
 37.9109657942 718.217042453 79.3855450407 774.838295507 136.017227269 802.10032498 c 0
 192.648909497 829.362354453 262.775308126 826.464901017 316.965 794.624 c 1
  Spiro
    316.965 794.624 v
    298 728 v
    106 650 o
    284 528 v
    278 0 v
    187.941 0 v
    203 437 v
    29 656 o
    0 0 z
  EndSpiro
EndSplineSet
Validated: 524325
EndChar

StartChar: uniE01F
Encoding: 57375 57375 31
Width: 700
VWidth: 0
InSpiro: 1
Flags: HW
LayerCount: 2
Fore
SplineSet
636 456 m 1
 399.754882812 450 l 1
 277.754882812 580 l 1
 737 564 l 1
 636 456 l 1
  Spiro
    636 456 v
    399.755 450 v
    277.755 580 v
    737 564 v
    0 0 z
  EndSpiro
489.413085938 260.095703125 m 0
 482.790039062 194.151367188 458.095703125 129.096679688 414.077148438 79.5498046875 c 0
 392.068359375 54.7763671875 365.252929688 34.1474609375 335.194335938 20.1982421875 c 0
 305.134765625 6.2490234375 271.880859375 -0.8896484375 238.754882812 0 c 0
 204.892578125 0.9091796875 171.346679688 10.2119140625 141.615234375 26.4453125 c 0
 111.883789062 42.6787109375 86.0166015625 65.6943359375 65.529296875 92.6708984375 c 0
 24.5546875 146.624023438 5.146484375 215.251953125 4.7548828125 283 c 0
 4.3291015625 356.844726562 26.3330078125 431.9375 72.708984375 489.403320312 c 0
 95.8974609375 518.13671875 125.19921875 542.102539062 158.580078125 557.883789062 c 0
 191.9609375 573.665039062 229.342773438 581.060546875 266.180664062 578.559570312 c 0
 302.271484375 576.110351562 337.596679688 564.19140625 368.140625 544.8125 c 0
 398.684570312 525.432617188 424.408203125 498.78125 443.837890625 468.268554688 c 0
 482.696289062 407.243164062 496.641601562 332.081054688 489.413085938 260.095703125 c 0
  Spiro
    489.413 260.096 o
    238.755 0 o
    4.75457 283 o
    266.181 578.56 o
    0 0 z
  EndSpiro
370.754882812 455 m 0
 338.766601562 477.211914062 297.66015625 484.559570312 259.21875 478.323242188 c 0
 220.778320312 472.086914062 184.990234375 453.54296875 154.754882812 429 c 0
 130.049804688 408.946289062 108.666015625 384.759765625 92.046875 357.625976562 c 0
 75.4267578125 330.4921875 63.6376953125 300.172851562 59.5283203125 268.620117188 c 0
 55.41796875 237.067382812 59.2958984375 204.235351562 72.5576171875 175.311523438 c 0
 85.8193359375 146.387695312 108.600585938 121.826171875 136.754882812 107 c 0
 157.336914062 96.1611328125 180.540039062 90.4931640625 203.797851562 90.03125 c 0
 227.055664062 89.568359375 250.3046875 94.2216796875 271.974609375 102.681640625 c 0
 315.313476562 119.602539062 352.173828125 150.903320312 380.251953125 188 c 0
 410.337890625 227.75 431.352539062 275.737304688 432.577148438 325.57421875 c 0
 433.189453125 350.493164062 428.596679688 375.65625 418.120117188 398.274414062 c 0
 407.64453125 420.892578125 391.228515625 440.783203125 370.754882812 455 c 0
  Spiro
    370.755 455 o
    154.755 429 o
    136.755 107 o
    380.252 188 o
    0 0 z
  EndSpiro
EndSplineSet
Validated: 524325
EndChar

StartChar: uniE020
Encoding: 57376 57376 32
Width: 500
VWidth: 0
Flags: HW
LayerCount: 2
Fore
SplineSet
139 380 m 1
 523 380 l 1
 471 292 l 1
 81 298 l 1
 139 380 l 1
25 551 m 1
 5.25969187001 583.846411 -2.17177036093 623.889756608 4.42119271907 661.640244266 c 0
 11.0141557991 699.390731925 31.5496247733 734.479765914 61 759 c 0
 96.9802344932 788.956962024 145.678209942 802.512340709 192.202385908 797.268496843 c 0
 238.726561875 792.024652978 282.427581304 768.630854705 315 735 c 0
 342.181881784 706.93484692 361.895297157 672.09644553 374.47552758 635.106645352 c 0
 387.055758004 598.116845174 392.686866562 559.007612095 393.942374486 519.957244432 c 0
 396.453390333 441.856509108 382.545114425 364.283506596 371 287 c 0
 356.800947176 191.950912381 346.626830832 96.1030847739 347 0 c 1
 255 0 l 1
 251.427656693 88.18546718 261.481205044 176.498381046 279 263 c 0
 292.948457131 331.872552409 311.748893453 400.088749281 317.431414014 470.129429544 c 0
 320.272674294 505.149769675 319.513577331 540.732929439 311.505062635 574.943464005 c 0
 303.496547938 609.153998571 287.855843043 642.166875961 263 667 c 0
 242.216492954 687.764510282 214.739672344 702.402888762 185.488556916 705.13991245 c 0
 156.237441489 707.876936139 125.608100689 697.938606411 105 677 c 0
 89.8623299422 661.619557129 80.4364599301 640.671151056 79.2893156102 619.121414687 c 0
 78.1421712903 597.571678318 85.3049618551 575.677919771 99 559 c 1
 25 551 l 1
  Spiro
    25 551 v
    61 759 o
    315 735 o
    371 287 o
    347 0 v
    255 0 v
    279 263 o
    263 667 o
    105 677 o
    99 559 v
    0 0 z
  EndSpiro
EndSplineSet
Validated: 524325
EndChar

StartChar: uniE021
Encoding: 57377 57377 33
Width: 400
VWidth: 0
Flags: HW
LayerCount: 2
Fore
SplineSet
39 477 m 1
 0 395 l 1
 363 395 l 1
 400 481 l 1
 39 477 l 1
147 818 m 1
 142 0 l 1
 259 0 l 1
 239 822 l 1
 147 818 l 1
EndSplineSet
Validated: 5
EndChar

StartChar: uniE022
Encoding: 57378 57378 34
Width: 500
VWidth: 0
Flags: HW
LayerCount: 2
Fore
SplineSet
0 454 m 1
 339 460 l 1
 301 374 l 1
 -47 374 l 1
 0 454 l 1
469.239257812 551 m 1
 395.239257812 559 l 1
 408.934570312 575.677734375 416.096679688 597.571289062 414.950195312 619.12109375 c 0
 413.802734375 640.670898438 404.376953125 661.619140625 389.239257812 677 c 0
 368.630859375 697.938476562 338.001953125 707.876953125 308.750976562 705.139648438 c 0
 279.5 702.403320312 252.022460938 687.764648438 231.239257812 667 c 0
 206.383789062 642.166992188 190.743164062 609.154296875 182.734375 574.943359375 c 0
 174.725585938 540.733398438 173.966796875 505.149414062 176.807617188 470.129882812 c 0
 182.490234375 400.088867188 201.291015625 331.872070312 215.239257812 263 c 0
 232.7578125 176.498046875 242.811523438 88.185546875 239.239257812 0 c 1
 147.239257812 0 l 1
 147.612304688 96.103515625 137.438476562 191.951171875 123.239257812 287 c 0
 111.694335938 364.283203125 97.7861328125 441.856445312 100.296875 519.95703125 c 0
 101.552734375 559.0078125 107.18359375 598.1171875 119.763671875 635.106445312 c 0
 132.34375 672.096679688 152.057617188 706.934570312 179.239257812 735 c 0
 211.811523438 768.630859375 255.512695312 792.024414062 302.037109375 797.268554688 c 0
 348.561523438 802.512695312 397.258789062 788.95703125 433.239257812 759 c 0
 462.689453125 734.479492188 483.225585938 699.390625 489.818359375 661.640625 c 0
 496.411132812 623.889648438 488.979492188 583.846679688 469.239257812 551 c 1
  Spiro
    395.239 559 v
    389.239 677 o
    231.239 667 o
    215.239 263 o
    239.239 0 v
    147.239 0 v
    123.239 287 o
    179.239 735 o
    433.239 759 o
    469.239 551 v
    0 0 z
  EndSpiro
EndSplineSet
Validated: 524325
EndChar

StartChar: uniE023
Encoding: 57379 57379 35
Width: 850
VWidth: 0
Flags: HW
LayerCount: 2
Fore
SplineSet
0 268 m 1
 74 330 l 1
 184 227 274.005577668 176.134219426 420 170 c 0
 539 165 630 210 684 298 c 1
 416 296 l 5
 482 368 l 1
 850 371 l 1
 760 228 644 96 430 88 c 0
 252.717519754 81.3726175609 122 152 0 268 c 1
EndSplineSet
Validated: 524321
EndChar

StartChar: uniE024
Encoding: 57380 57380 36
Width: 850
VWidth: 0
InSpiro: 1
Flags: HW
LayerCount: 2
Fore
SplineSet
28.7106 67.584 m 1
 127.014 21.504 l 1
 156.189092899 84.113666876 203.549288566 138.194147682 262 175 c 0
 332.934615298 219.666846833 420.738787509 238.122647828 503 222 c 0
 581.964644917 206.523457383 654.250127064 158.875910389 699 92 c 1
 447 91 l 1
 381 18 l 1
 850 15 l 1
 830.493659995 80.2154353346 794.43129308 140.396461931 746.173683748 188.404309705 c 0
 697.916074416 236.412157478 637.600408519 272.104352978 572.454 291.84 c 0
 460.416382635 325.781009486 335.701527195 311.325957918 231.462 258.048 c 0
 147.805136627 215.290065786 76.7994449509 148.294437484 28.7106 67.584 c 1
  Spiro
    28.7106 67.584 v
    127.014 21.504 v
    262 175 o
    503 222 o
    699 92 v
    447 91 v
    381 18 v
    850 15 v
    572.454 291.84 o
    231.462 258.048 o
    0 0 z
  EndSpiro
28.7099609375 95.232421875 m 1048
  Spiro
    28.7106 95.232 {
    0 0 z
  EndSpiro
EndSplineSet
Validated: 524329
EndChar

StartChar: uniE025
Encoding: 57381 57381 37
Width: 500
VWidth: 0
Flags: HW
LayerCount: 2
Fore
SplineSet
53 494 m 1
 500 498 l 1
 431 394 l 1
 0 392 l 1
 53 494 l 1
60.7099609375 19.408203125 m 1
 5.482421875 117 l 1
 86.458984375 141.278320312 157.416015625 197.6796875 198.94921875 271.311523438 c 0
 230.65234375 327.517578125 245.2421875 393.397460938 239.206054688 457.645507812 c 0
 233.168945312 521.892578125 206.296975199 584.151457855 163 632 c 0
 130.412109375 668.013671875 60.7841796875 707.791015625 15 724 c 1
 91 820 l 1
 149.272460938 786.286132812 225.150664844 722.983570954 261 666 c 0
 300.5078125 603.201171875 322.836914062 529.850585938 325.955078125 455.723632812 c 0
 329.072265625 381.596679688 313.147460938 306.866210938 281 240 c 0
 235.118164062 144.567382812 155.98828125 65.6103515625 60.7099609375 19.408203125 c 1
EndSplineSet
Validated: 524325
EndChar

StartChar: uniE026
Encoding: 57382 57382 38
Width: 550
VWidth: 0
Flags: HW
LayerCount: 2
Fore
SplineSet
73.78515625 650 m 1
 525.78515625 642 l 1
 471.78515625 550 l 1
 11.78515625 556 l 1
 73.78515625 650 l 1
380.78515625 824 m 1
 458.78515625 748 l 1
 358.862304688 649.73828125 261.720703125 543.432617188 206.286132812 414.719726562 c 0
 193.055664062 383.999023438 182.931640625 351.790039062 178.348632812 318.65625 c 0
 173.765625 285.5234375 174.856445312 251.36328125 183.997070312 219.1875 c 0
 193.138671875 187.012695312 210.591796875 156.90625 235.623046875 134.719726562 c 0
 260.654296875 112.533203125 293.34375 98.7001953125 326.78515625 98 c 0
 352.43359375 97.462890625 378.26171875 104.65234375 399.67578125 118.779296875 c 0
 421.088867188 132.90625 437.92578125 153.924804688 446.78515625 178 c 0
 455.106445312 200.612304688 456.34765625 225.79296875 450.166015625 249.08203125 c 0
 443.984375 272.370117188 430.399414062 293.643554688 411.830078125 308.998046875 c 0
 393.260742188 324.353515625 369.80078125 333.705078125 345.759765625 335.311523438 c 0
 321.717773438 336.916992188 297.21875 330.76953125 276.78515625 318 c 1
 246.78515625 408 l 1
 287.7265625 424.090820312 333.694335938 427.10546875 376.38671875 416.498046875 c 0
 419.078125 405.890625 458.291992188 381.709960938 486.927734375 348.31640625 c 0
 515.563476562 314.922851562 533.483398438 272.471679688 537.393554688 228.655273438 c 0
 541.302734375 184.83984375 531.174804688 139.865234375 508.78515625 102 c 0
 477.069335938 48.3623046875 420.404296875 10.205078125 358.7734375 1.0048828125 c 0
 297.143554688 -8.1943359375 232.293945312 11.677734375 184.78515625 52 c 0
 138.278320312 91.4716796875 108.712890625 148.798828125 97.318359375 208.724609375 c 0
 85.9228515625 268.650390625 91.541015625 330.935546875 106.78515625 390 c 0
 150.02734375 557.543945312 257.151367188 702.939453125 380.78515625 824 c 1
  Spiro
    380.785 824 v
    458.785 748 v
    206.286 414.72 o
    326.785 98 o
    446.785 178 o
    276.785 318 v
    246.785 408 v
    508.785 102 o
    184.785 52 o
    106.785 390 o
    0 0 z
  EndSpiro
EndSplineSet
Validated: 524325
EndChar

StartChar: uniE027
Encoding: 57383 57383 39
Width: 600
VWidth: 0
Flags: HW
LayerCount: 2
Fore
SplineSet
246 311 m 1
 285 413 l 1
 661 411 l 1
 600 311 l 1
 246 311 l 1
0 0 m 1
 205 826 l 1
 313 824 l 1
 600 0 l 1
 497 0 l 1
 272 681 l 1
 116 0 l 1
 0 0 l 1
EndSplineSet
Validated: 5
EndChar

StartChar: uniE028
Encoding: 57384 57384 40
Width: 600
VWidth: 0
Flags: HW
LayerCount: 2
Fore
SplineSet
238 482 m 1
 718 500 l 1
 628 388 l 1
 164 380 l 1
 238 482 l 1
0 817 m 1
 557 817 l 1
 551.187830275 623.705990655 533.575274421 430.76752045 504.293 239.616 c 0
 492.003977404 159.394589587 477.661718996 79.4877213157 461.285 0 c 1
 369 0 l 1
 405.210184652 150.072305494 429.313900086 303.063943737 441 457 c 0
 447.464807347 542.158175505 450.134999691 627.604330525 449 713 c 1
 58.8532 712.704 l 1
 0 817 l 1
  Spiro
    0 817 v
    557 817 v
    504.293 239.616 o
    461.285 0 v
    369 0 v
    441 457 o
    449 713 v
    58.8532 712.704 v
    0 0 z
  EndSpiro
EndSplineSet
Validated: 524325
EndChar

StartChar: uniE029
Encoding: 57385 57385 41
Width: 700
VWidth: 0
InSpiro: 1
Flags: HW
LayerCount: 2
Fore
SplineSet
179 300 m 1
 656 316 l 1
 592 222 l 1
 111 218 l 1
 179 300 l 1
  Spiro
    179 300 v
    656 316 v
    592 222 v
    111 218 v
    0 0 z
  EndSpiro
21.052734375 648.192382812 m 1
 53.6171875 664.627929688 90.0751953125 673.1875 126.551757812 673.30078125 c 0
 163.028320312 673.413085938 199.23828125 665.021484375 233.021484375 651.263671875 c 0
 289.419921875 628.296875 338.549804688 589.93359375 395.079101562 567.290039062 c 0
 423.34375 555.967773438 453.883789062 548.997070312 484.21875 551.6171875 c 0
 514.553710938 554.23828125 544.494140625 567.133789062 564.796875 589.82421875 c 0
 578.830078125 605.506835938 587.979492188 625.620117188 589.94140625 646.573242188 c 0
 591.90234375 667.526367188 586.5859375 689.1171875 574.965820312 706.663085938 c 0
 563.345703125 724.208984375 545.552734375 737.524414062 525.517578125 743.963867188 c 0
 505.482421875 750.404296875 483.416992188 749.984375 463.420898438 743.423828125 c 0
 431.32421875 732.89453125 405.583984375 706.958007812 391.125976562 676.428710938 c 0
 376.66796875 645.899414062 372.598632812 611.271484375 374.333007812 577.536132812 c 0
 379.426757812 478.439453125 424.327148438 385.447265625 437.291992188 287.0703125 c 0
 450.256835938 188.692382812 433.993164062 85.44921875 383.548828125 0 c 1
 291 0 l 1
 320.989257812 48.0830078125 339.8671875 102.94921875 346.525390625 159.224609375 c 0
 353.18359375 215.5 347.409179688 272.70703125 335 328 c 0
 320.217773438 393.868164062 296.173828125 457.6015625 285.229492188 524.21484375 c 0
 279.756835938 557.521484375 277.770507812 591.588867188 282.081054688 625.065429688 c 0
 286.392578125 658.541992188 297.158203125 691.34765625 315 720 c 0
 335.16015625 752.375 364.334960938 779.110351562 398.48046875 796.1015625 c 0
 432.625 813.092773438 471.500976562 820.401367188 509.500976562 817.15234375 c 0
 544.559570312 814.154296875 578.920898438 802.177734375 607.782226562 782.049804688 c 0
 636.643554688 761.921875 659.860351562 733.50390625 672.700195312 700.743164062 c 0
 685.5390625 667.982421875 687.709960938 631.030273438 678.111328125 597.177734375 c 0
 668.513671875 563.325195312 647.20703125 533.03515625 619 512 c 0
 591.071289062 491.171875 556.87890625 479.479492188 522.194335938 476.1953125 c 0
 487.508789062 472.911132812 452.438476562 477.703125 418.7109375 486.435546875 c 0
 351.254882812 503.900390625 288.2265625 535.671875 221 554 c 0
 154.01171875 572.262695312 82.794921875 576.75 14.908203125 562.17578125 c 1
 21.052734375 648.192382812 l 1
  Spiro
    21.0526 648.192 v
    233.021 651.264 o
    564.797 589.824 o
    463.421 743.424 o
    374.333 577.536 o
    383.549 0 v
    291 0 v
    335 328 o
    315 720 o
    509.501 817.152 o
    619 512 o
    221 554 o
    14.9086 562.176 v
    0 0 z
  EndSpiro
EndSplineSet
Validated: 524325
EndChar

StartChar: uniE02A
Encoding: 57386 57386 42
Width: 400
VWidth: 0
InSpiro: 1
Flags: HW
LayerCount: 2
Fore
SplineSet
0 162 m 1
 400 446 l 1
 400 338 l 1
 0 50 l 1
 0 162 l 1
  Spiro
    0 162 v
    400 446 v
    400 338 v
    0 50 v
    0 0 z
  EndSpiro
400 819 m 1
 391.286807128 740.901865141 365.888326618 664.70642361 326 597 c 0
 284.731452717 526.950790594 227.984462263 466.076746289 161 420 c 1
 211.480863904 371.743267083 255.933893612 317.187276078 293 258 c 0
 342.64397788 178.728338887 378.969926646 91.1386680289 400 0 c 1
 302 0 l 1
 283.407054469 93.097137886 243.808019157 181.936712761 187 258 c 0
 136.531851841 325.574495764 72.5752595567 383.032824661 0 426 c 1
 113.69415937 471.066883955 207.585522787 563.849294261 254 677 c 0
 272.396848469 721.848429037 283.583409433 769.645553156 287 818 c 1
 400 819 l 1
  Spiro
    400 819 v
    326 597 o
    161 420 v
    293 258 o
    400 0 v
    302 0 v
    187 258 o
    0 426 v
    254 677 o
    287 818 v
    0 0 z
  EndSpiro
EndSplineSet
Validated: 524293
EndChar

StartChar: uniE02B
Encoding: 57387 57387 43
Width: 500
VWidth: 0
InSpiro: 1
Flags: HW
VStem: 240.898 88.9255<162.669 445.031>
LayerCount: 2
Fore
SplineSet
501.024414062 648 m 1
 404.719726562 549.075195312 290.693359375 469.403320312 189.024414062 376 c 0
 159.001953125 348.418945312 130.297851562 318.77734375 109.024414062 284 c 0
 90.658203125 253.977539062 78.216796875 218.75 82.654296875 183.8359375 c 0
 84.873046875 166.37890625 91.4248046875 149.37109375 102.250976562 135.498046875 c 0
 113.078125 121.625976562 128.174804688 111.075195312 145.024414062 106 c 0
 159.232421875 101.720703125 174.5546875 101.326171875 189.024414062 104.61328125 c 0
 203.494140625 107.900390625 217.061523438 114.803710938 228.610351562 124.120117188 c 0
 251.708007812 142.754882812 266.245117188 170.360351562 274.024414062 199 c 0
 283.142578125 232.57421875 284.016601562 267.892578125 281.874023438 302.6171875 c 0
 279.73046875 337.341796875 274.448242188 371.807617188 268.024414062 406 c 0
 241.904296875 545.01953125 202.71484375 681.28515625 175.024414062 820 c 1
 286.024414062 823 l 1
 309.055664062 716.1953125 332.635742188 609.454101562 351.0703125 501.759765625 c 0
 360.9375 444.116210938 369.091796875 386.026367188 370.798828125 327.569335938 c 0
 372.506835938 269.111328125 367.649414062 209.706054688 347.998046875 154.624023438 c 0
 330.719726562 106.1953125 300.907226562 61.0703125 258.224609375 32.3994140625 c 0
 236.883789062 18.0634765625 212.557617188 8.0458984375 187.171875 3.9794921875 c 0
 161.786132812 -0.0869140625 135.415039062 1.8720703125 111.024414062 10 c 0
 78.904296875 20.7041015625 50.587890625 42.1904296875 31.1298828125 69.8974609375 c 0
 11.671875 97.6044921875 1.080078125 131.140625 -0.7314453125 164.94921875 c 0
 -2.5439453125 198.756835938 4.1767578125 232.73046875 16.4853515625 264.270507812 c 0
 28.7939453125 295.810546875 46.5546875 325.03125 67.0244140625 352 c 0
 126.561523438 430.442382812 205.60546875 491.453125 280.926757812 554.892578125 c 0
 356.248046875 618.33203125 429.9453125 683.814453125 499.024414062 754 c 1
 501.024414062 648 l 1
  Spiro
    501.024 648 v
    189.024 376 o
    109.024 284 o
    145.024 106 o
    274.024 199 o
    268.024 406 o
    175.024 820 v
    286.024 823 v
    351.07 501.76 o
    347.998 154.624 o
    111.024 10 o
    67.0241 352 o
    499.024 754 v
    0 0 z
  EndSpiro
EndSplineSet
Validated: 524325
EndChar

StartChar: uniE02C
Encoding: 57388 57388 44
Width: 400
VWidth: 0
InSpiro: 1
Flags: HW
LayerCount: 2
Fore
SplineSet
71 184 m 1
 379 421 l 1
 377 315 l 1
 73 81 l 1
 71 184 l 1
  Spiro
    71 184 v
    379 421 v
    377 315 v
    73 81 v
    0 0 z
  EndSpiro
-134.619140625 254.975585938 m 1024
  Spiro
    -134.619 254.976 {
    0 0 z
  EndSpiro
316.965 794.624 m 1
 291 718 l 1
 261.200785512 737.050180972 222.225711064 740.930857144 189.255201475 728.130541656 c 0
 156.284691885 715.330226169 130.138376815 686.167128184 121 652 c 0
 115.50272562 631.446450698 115.96995339 609.334454839 122.330528892 589.031462601 c 0
 128.691104393 568.728470363 140.923756874 550.302378103 157.16556776 536.559307353 c 0
 173.407378647 522.816236603 193.604032803 513.802146323 214.679768679 510.889798165 c 0
 235.755504556 507.977450006 257.63984162 511.176583313 277 520 c 1
 283 0 l 1
 187.941 0 l 1
 200 431 l 1
 147.833584848 435.638717702 97.9711741415 462.226795611 65.050760011 502.958833434 c 0
 32.1303458805 543.690871256 16.5930055711 598.02112935 23 650 c 0
 30.9127270898 714.194627053 72.8653238554 773.19407739 130.902337026 801.746949307 c 0
 188.939350198 830.299821223 261.280803478 827.530407434 316.965 794.624 c 1
  Spiro
    316.965 794.624 v
    291 718 v
    121 652 o
    277 520 v
    283 0 v
    187.941 0 v
    200 431 v
    23 650 o
    0 0 z
  EndSpiro
EndSplineSet
Validated: 524325
EndChar

StartChar: uniE02D
Encoding: 57389 57389 45
Width: 800
VWidth: 0
Flags: HW
LayerCount: 2
Fore
SplineSet
405 362 m 1
 753 637 l 1
 751 511 l 1
 397 264 l 1
 405 362 l 1
385.57421875 578.559570312 m 0
 426.755859375 581.043945312 468.484375 573.266601562 506.112304688 556.349609375 c 0
 543.740234375 539.432617188 577.189453125 513.490234375 603.467773438 481.686523438 c 0
 656.025390625 418.078125 678.8984375 331.670898438 668.198242188 249.856445312 c 0
 660.015625 187.293945312 632.42578125 127.073242188 588.805664062 81.4853515625 c 0
 545.185546875 35.8974609375 485.270507812 5.7529296875 422.438476562 0 c 0
 381.588867188 -3.740234375 339.879882812 2.6484375 301.936523438 18.234375 c 0
 263.993164062 33.8203125 229.899414062 58.4931640625 202.731445312 89.2255859375 c 0
 148.39453125 150.69140625 122.811523438 235.770507812 130.598632812 317.440429688 c 0
 136.883789062 383.364257812 164.676757812 447.444335938 210.248046875 495.494140625 c 0
 255.8203125 543.543945312 319.470703125 574.572265625 385.57421875 578.559570312 c 0
  Spiro
    668.195 249.856 o
    422.435 0 o
    130.595 317.44 o
    385.571 578.56 o
    0 0 z
  EndSpiro
513 463 m 0
 492.381530871 476.131411361 468.433657163 483.861658214 444.065637976 485.799408062 c 0
 419.69761879 487.73715791 395.000848091 483.976689963 371.953468039 475.829696268 c 0
 325.858707935 459.535708877 286.652172316 426.614062601 258 387 c 0
 231.065110692 349.760227063 212.726561499 305.431419671 210.738184111 259.514807146 c 0
 209.743995417 236.556500884 212.99226968 213.337153873 221.077042107 191.826489253 c 0
 229.161814534 170.315824633 242.133431731 150.607405692 259 135 c 0
 277.208351459 118.150981061 299.857459503 106.221027882 323.962622074 100.358038928 c 0
 348.067784646 94.4950499739 373.493947731 94.6266378297 397.763555796 99.7666404027 c 0
 446.302771926 110.046645549 489.537883396 139.477406888 522 177 c 0
 557.439098747 217.963653071 581.58348848 270.124384355 582.874018335 324.274962613 c 0
 583.519283262 351.350251741 578.184065366 378.691524937 566.280119804 403.018130296 c 0
 554.376174242 427.344735655 535.843560301 448.45148114 513 463 c 0
  Spiro
    513 463 o
    258 387 o
    259 135 o
    522 177 o
    0 0 z
  EndSpiro
EndSplineSet
Validated: 524325
EndChar

StartChar: uniE02E
Encoding: 57390 57390 46
Width: 500
VWidth: 0
Flags: HW
LayerCount: 2
Fore
SplineSet
119 327 m 5
 500 556 l 5
 500 454 l 5
 119 231 l 5
 119 327 l 5
25 551 m 1
 5.25969187001 583.846411 -2.17177036093 623.889756608 4.42119271907 661.640244266 c 0
 11.0141557991 699.390731925 31.5496247733 734.479765914 61 759 c 0
 96.9802344932 788.956962024 145.678209942 802.512340709 192.202385908 797.268496843 c 0
 238.726561875 792.024652978 282.427581304 768.630854705 315 735 c 0
 342.181881784 706.93484692 361.895297157 672.09644553 374.47552758 635.106645352 c 0
 387.055758004 598.116845174 392.686866562 559.007612095 393.942374486 519.957244432 c 0
 396.453390333 441.856509108 382.545114425 364.283506596 371 287 c 0
 356.800947176 191.950912381 346.626830832 96.1030847739 347 0 c 1
 255 0 l 1
 251.427656693 88.18546718 261.481205044 176.498381046 279 263 c 0
 292.948457131 331.872552409 311.748893453 400.088749281 317.431414014 470.129429544 c 0
 320.272674294 505.149769675 319.513577331 540.732929439 311.505062635 574.943464005 c 0
 303.496547938 609.153998571 287.855843043 642.166875961 263 667 c 0
 242.216492954 687.764510282 214.739672344 702.402888762 185.488556916 705.13991245 c 0
 156.237441489 707.876936139 125.608100689 697.938606411 105 677 c 0
 89.8623299422 661.619557129 80.4364599301 640.671151056 79.2893156102 619.121414687 c 0
 78.1421712903 597.571678318 85.3049618551 575.677919771 99 559 c 1
 25 551 l 1
  Spiro
    25 551 v
    61 759 o
    315 735 o
    371 287 o
    347 0 v
    255 0 v
    279 263 o
    263 667 o
    105 677 o
    99 559 v
    0 0 z
  EndSpiro
EndSplineSet
Validated: 524325
EndChar

StartChar: uniE02F
Encoding: 57391 57391 47
Width: 400
VWidth: 0
Flags: HW
LayerCount: 2
Fore
SplineSet
0 207 m 1
 400 527 l 1
 400 645 l 1
 0 319 l 1
 0 207 l 1
137 819 m 1
 144 0 l 1
 261 0 l 1
 221 819 l 1
 137 819 l 1
EndSplineSet
Validated: 5
EndChar

StartChar: uniE030
Encoding: 57392 57392 48
Width: 500
VWidth: 0
Flags: HW
LayerCount: 2
Fore
SplineSet
0 253 m 25
 363 422 l 1
 355 314 l 25
 0 139 l 1
 0 253 l 25
469.239257812 551 m 1
 395.239257812 559 l 1
 408.934570312 575.677734375 416.096679688 597.571289062 414.950195312 619.12109375 c 0
 413.802734375 640.670898438 404.376953125 661.619140625 389.239257812 677 c 0
 368.630859375 697.938476562 338.001953125 707.876953125 308.750976562 705.139648438 c 0
 279.5 702.403320312 252.022460938 687.764648438 231.239257812 667 c 0
 206.383789062 642.166992188 190.743164062 609.154296875 182.734375 574.943359375 c 0
 174.725585938 540.733398438 173.966796875 505.149414062 176.807617188 470.129882812 c 0
 182.490234375 400.088867188 201.291015625 331.872070312 215.239257812 263 c 0
 232.7578125 176.498046875 242.811523438 88.185546875 239.239257812 0 c 1
 147.239257812 0 l 1
 147.612304688 96.103515625 137.438476562 191.951171875 123.239257812 287 c 0
 111.694335938 364.283203125 97.7861328125 441.856445312 100.296875 519.95703125 c 0
 101.552734375 559.0078125 107.18359375 598.1171875 119.763671875 635.106445312 c 0
 132.34375 672.096679688 152.057617188 706.934570312 179.239257812 735 c 0
 211.811523438 768.630859375 255.512695312 792.024414062 302.037109375 797.268554688 c 0
 348.561523438 802.512695312 397.258789062 788.95703125 433.239257812 759 c 0
 462.689453125 734.479492188 483.225585938 699.390625 489.818359375 661.640625 c 0
 496.411132812 623.889648438 488.979492188 583.846679688 469.239257812 551 c 1
  Spiro
    395.239 559 v
    389.239 677 o
    231.239 667 o
    215.239 263 o
    239.239 0 v
    147.239 0 v
    123.239 287 o
    179.239 735 o
    433.239 759 o
    469.239 551 v
    0 0 z
  EndSpiro
EndSplineSet
Validated: 524325
EndChar

StartChar: uniE031
Encoding: 57393 57393 49
Width: 850
VWidth: 0
InSpiro: 1
Flags: HW
LayerCount: 2
Fore
SplineSet
68 0 m 1
 346 313 l 1
 354 437 l 1
 74 109 l 1
 68 0 l 1
  Spiro
    68 0 v
    346 313 v
    354 437 v
    74 109 v
    0 0 z
  EndSpiro
828.456 280.248 m 1
 744 332 l 1
 695.855129327 269.293933681 626.293644963 223.71856809 550 203 c 0
 465.515154233 180.057000876 374.796129342 186.852141677 290.866 211.748 c 0
 217.799780918 233.421340107 148.788625042 268.289867211 87.0798 313.016 c 1
 21.5438 251.576 l 1
 94.6477775341 192.894550508 179.619745165 148.881993122 270 124 c 0
 378.945742395 94.0068646859 496.830350393 92.6003868256 604.09 128.155 c 0
 690.968027814 156.953478119 769.777352018 210.005845066 828.456 280.248 c 1
  Spiro
    828.456 280.248 v
    744 332 v
    550 203 o
    290.866 211.748 o
    87.0798 313.016 v
    21.5438 251.576 v
    270 124 o
    604.09 128.155 o
    0 0 z
  EndSpiro
EndSplineSet
Validated: 524325
EndChar

StartChar: uniE032
Encoding: 57394 57394 50
Width: 850
VWidth: 0
InSpiro: 1
Flags: HW
LayerCount: 2
Fore
SplineSet
480 127 m 1
 777 422 l 1
 773 317 l 1
 478 24 l 1
 480 127 l 1
  Spiro
    480 127 v
    777 422 v
    773 317 v
    478 24 v
    0 0 z
  EndSpiro
28.7106 67.584 m 1
 76.5947005838 148.442002811 147.691158727 215.464554159 231.462 258.048 c 0
 335.761716271 311.066941335 460.261336439 325.040078276 572.454 291.84 c 0
 675.61590586 261.312305577 766.552252783 190.924385786 821.286 98.304 c 1
 722.982 43.008 l 1
 704.064075775 88.4514099005 673.682922202 129.062392707 635.461787377 160.08071331 c 0
 597.240652552 191.099033913 551.285545038 212.434567405 503 222 c 0
 420.758308853 238.29219164 332.917515504 219.71954009 262 175 c 0
 203.57694957 138.159285441 156.235420193 84.0867426107 127.014 21.504 c 1
 28.7106 67.584 l 1
  Spiro
    231.462 258.048 o
    572.454 291.84 o
    821.286 98.304 v
    722.982 43.008 v
    503 222 o
    262 175 o
    127.014 21.504 v
    28.7106 67.584 v
    0 0 z
  EndSpiro
28.7099609375 95.232421875 m 1048
  Spiro
    28.7106 95.232 {
    0 0 z
  EndSpiro
EndSplineSet
Validated: 524325
EndChar

StartChar: uniE033
Encoding: 57395 57395 51
Width: 500
VWidth: 0
Flags: HW
LayerCount: 2
Fore
SplineSet
29 536 m 1
 425 802 l 1
 425 678 l 1
 23 420 l 1
 29 536 l 1
60.7099609375 19.408203125 m 1
 5.482421875 117 l 1
 86.458984375 141.278320312 157.416015625 197.6796875 198.94921875 271.311523438 c 0
 230.65234375 327.517578125 245.2421875 393.397460938 239.206054688 457.645507812 c 0
 233.168945312 521.892578125 206.296975199 584.151457855 163 632 c 0
 130.412109375 668.013671875 60.7841796875 707.791015625 15 724 c 1
 91 820 l 1
 149.272460938 786.286132812 225.150664844 722.983570954 261 666 c 0
 300.5078125 603.201171875 322.836914062 529.850585938 325.955078125 455.723632812 c 0
 329.072265625 381.596679688 313.147460938 306.866210938 281 240 c 0
 235.118164062 144.567382812 155.98828125 65.6103515625 60.7099609375 19.408203125 c 1
EndSplineSet
Validated: 524325
EndChar

StartChar: uniE034
Encoding: 57396 57396 52
Width: 550
VWidth: 0
InSpiro: 1
Flags: HW
LayerCount: 2
Fore
SplineSet
289 240 m 1
 550 478 l 1
 550 340 l 1
 277 162 l 1
 289 240 l 1
  Spiro
    289 240 v
    550 478 v
    550 340 v
    277 162 v
    0 0 z
  EndSpiro
332 824 m 1
 410 748 l 1
 310.076624057 649.738595808 212.935899602 543.432689817 157.501 414.72 c 0
 144.270044674 383.99942756 134.146721333 351.789753072 129.563696077 318.656572883 c 0
 124.980670822 285.523392695 126.071115057 251.363330624 135.212110946 219.187968247 c 0
 144.353106834 187.012605871 161.806585669 156.905944982 186.837979679 134.719438637 c 0
 211.869373689 112.532932292 244.558691502 98.7004540167 278 98 c 0
 303.647923932 97.462784438 329.476686076 104.652318883 350.890054606 118.779323193 c 0
 372.303423136 132.906327503 389.140381527 153.924872522 398 178 c 0
 406.321404967 200.612586081 407.562144593 225.792878562 401.380517297 249.081552073 c 0
 395.198890002 272.370225584 381.613959642 293.643885213 363.044911232 308.998535032 c 0
 344.475862822 324.353184851 321.015824352 333.704797357 296.974305521 335.311098139 c 0
 272.93278669 336.91739892 248.433124757 330.769582709 228 318 c 1
 198 408 l 1
 238.941406868 424.090862745 284.909502262 427.105791689 327.601340743 416.498172382 c 0
 370.293179224 405.890553075 409.506914986 381.710166145 438.142462876 348.316752763 c 0
 466.778010765 314.923339382 484.698024276 272.471406339 488.607901081 228.655569891 c 0
 492.517777887 184.839733444 482.389835597 139.865682645 460 102 c 0
 428.28394819 48.3618235438 371.619015853 10.2047949764 309.988418533 1.00526292308 c 0
 248.357821214 -8.19426913025 183.508708188 11.6777411065 136 52 c 0
 89.4929546885 91.4721134912 59.9278655131 148.798790877 48.5329451058 208.724651705 c 0
 37.1380246985 268.650512534 42.7558605791 330.935888897 58 390 c 0
 101.242318856 557.544329971 208.366424389 702.939107772 332 824 c 1
  Spiro
    332 824 v
    410 748 v
    157.501 414.72 o
    278 98 o
    398 178 o
    228 318 v
    198 408 v
    460 102 o
    136 52 o
    58 390 o
    0 0 z
  EndSpiro
EndSplineSet
Validated: 524325
EndChar

StartChar: uniE035
Encoding: 57397 57397 53
Width: 600
VWidth: 0
InSpiro: 1
Flags: HW
LayerCount: 2
Fore
SplineSet
245 233 m 1
 600 577 l 1
 600 435 l 1
 237 95 l 1
 245 233 l 1
  Spiro
    245 233 v
    600 577 v
    600 435 v
    237 95 v
    0 0 z
  EndSpiro
0 0 m 1
 205 826 l 1
 313 824 l 1
 600 0 l 1
 497 0 l 1
 271 673 l 1
 107 0 l 1
 0 0 l 1
  Spiro
    0 0 v
    205 826 v
    313 824 v
    600 0 v
    497 0 v
    271 673 v
    107 0 v
    0 0 z
  EndSpiro
EndSplineSet
Validated: 5
EndChar

StartChar: uniE036
Encoding: 57398 57398 54
Width: 600
VWidth: 0
InSpiro: 1
Flags: HW
LayerCount: 2
Fore
SplineSet
276 438 m 1
 660 680 l 1
 656 532 l 1
 268 300 l 1
 276 438 l 1
  Spiro
    276 438 v
    660 680 v
    656 532 v
    268 300 v
    0 0 z
  EndSpiro
0 817 m 1
 557 817 l 1
 551.187830275 623.705990655 533.575274421 430.76752045 504.293 239.616 c 0
 492.003977404 159.394589587 477.661718996 79.4877213157 461.285 0 c 1
 369 0 l 1
 405.210184652 150.072305494 429.313900086 303.063943737 441 457 c 0
 447.464807347 542.158175505 450.134999691 627.604330525 449 713 c 1
 58.8532 712.704 l 1
 0 817 l 1
  Spiro
    0 817 v
    557 817 v
    504.293 239.616 o
    461.285 0 v
    369 0 v
    441 457 o
    449 713 v
    58.8532 712.704 v
    0 0 z
  EndSpiro
EndSplineSet
Validated: 524325
EndChar

StartChar: uniE037
Encoding: 57399 57399 55
Width: 700
VWidth: 0
Flags: HW
LayerCount: 2
Fore
SplineSet
142 164 m 5
 592 446 l 1
 588 334 l 1
 132 60 l 5
 142 164 l 5
21.052734375 648.192382812 m 1
 53.6171875 664.627929688 90.0751953125 673.1875 126.551757812 673.30078125 c 0
 163.028320312 673.413085938 199.23828125 665.021484375 233.021484375 651.263671875 c 0
 289.419921875 628.296875 338.549804688 589.93359375 395.079101562 567.290039062 c 0
 423.34375 555.967773438 453.883789062 548.997070312 484.21875 551.6171875 c 0
 514.553710938 554.23828125 544.494140625 567.133789062 564.796875 589.82421875 c 0
 578.830078125 605.506835938 587.979492188 625.620117188 589.94140625 646.573242188 c 0
 591.90234375 667.526367188 586.5859375 689.1171875 574.965820312 706.663085938 c 0
 563.345703125 724.208984375 545.552734375 737.524414062 525.517578125 743.963867188 c 0
 505.482421875 750.404296875 483.416992188 749.984375 463.420898438 743.423828125 c 0
 431.32421875 732.89453125 405.583984375 706.958007812 391.125976562 676.428710938 c 0
 376.66796875 645.899414062 372.598632812 611.271484375 374.333007812 577.536132812 c 0
 379.426757812 478.439453125 424.327148438 385.447265625 437.291992188 287.0703125 c 0
 450.256835938 188.692382812 433.993164062 85.44921875 383.548828125 0 c 1
 291 0 l 1
 320.989257812 48.0830078125 339.8671875 102.94921875 346.525390625 159.224609375 c 0
 353.18359375 215.5 347.409179688 272.70703125 335 328 c 0
 320.217773438 393.868164062 296.173828125 457.6015625 285.229492188 524.21484375 c 0
 279.756835938 557.521484375 277.770507812 591.588867188 282.081054688 625.065429688 c 0
 286.392578125 658.541992188 297.158203125 691.34765625 315 720 c 0
 335.16015625 752.375 364.334960938 779.110351562 398.48046875 796.1015625 c 0
 432.625 813.092773438 471.500976562 820.401367188 509.500976562 817.15234375 c 0
 544.559570312 814.154296875 578.920898438 802.177734375 607.782226562 782.049804688 c 0
 636.643554688 761.921875 659.860351562 733.50390625 672.700195312 700.743164062 c 0
 685.5390625 667.982421875 687.709960938 631.030273438 678.111328125 597.177734375 c 0
 668.513671875 563.325195312 647.20703125 533.03515625 619 512 c 0
 591.071289062 491.171875 556.87890625 479.479492188 522.194335938 476.1953125 c 0
 487.508789062 472.911132812 452.438476562 477.703125 418.7109375 486.435546875 c 0
 351.254882812 503.900390625 288.2265625 535.671875 221 554 c 0
 154.01171875 572.262695312 82.794921875 576.75 14.908203125 562.17578125 c 1
 21.052734375 648.192382812 l 1
  Spiro
    21.0526 648.192 v
    233.021 651.264 o
    564.797 589.824 o
    463.421 743.424 o
    374.333 577.536 o
    383.549 0 v
    291 0 v
    335 328 o
    315 720 o
    509.501 817.152 o
    619 512 o
    221 554 o
    14.9086 562.176 v
    0 0 z
  EndSpiro
EndSplineSet
Validated: 524325
EndChar

StartChar: uniE038
Encoding: 57400 57400 56
Width: 400
VWidth: 0
InSpiro: 1
Flags: HW
LayerCount: 2
Fore
SplineSet
105 86 m 1
 453 276 l 1
 452 185 l 1
 103 0 l 1
 105 86 l 1
  Spiro
    105 86 v
    453 276 v
    452 185 v
    103 0 v
    0 0 z
  EndSpiro
48 242 m 1
 400 460 l 1
 400 350 l 1
 46 158 l 1
 48 242 l 1
  Spiro
    48 242 v
    400 460 v
    400 350 v
    46 158 v
    0 0 z
  EndSpiro
400 818 m 1
 391.131206342 740.246068647 365.740419201 664.416825968 326 597 c 0
 284.714695074 526.962384061 227.971722778 466.092650144 161 420 c 1
 211.480863904 371.743267083 255.933893612 317.187276078 293 258 c 0
 342.64397788 178.728338887 378.969926646 91.1386680289 400 0 c 1
 290 0 l 1
 273.890329985 97.5983081786 233.705576914 191.131785156 174 270 c 0
 126.692795037 332.490557793 67.265293323 385.770386916 0 426 c 1
 98.3028992039 465.417915173 182.773501347 538.434876347 236 630 c 0
 269.402298829 687.461709862 290.66676107 751.94104698 298 818 c 1
 400 818 l 1
  Spiro
    400 818 v
    326 597 o
    161 420 v
    293 258 o
    400 0 v
    290 0 v
    174 270 o
    0 426 v
    236 630 o
    298 818 v
    0 0 z
  EndSpiro
EndSplineSet
Validated: 524293
EndChar

StartChar: uniE039
Encoding: 57401 57401 57
Width: 500
VWidth: 0
Flags: HW
LayerCount: 2
Fore
SplineSet
87.3291015625 491 m 1
 89.3291015625 591 l 1
 447.329101562 817 l 1
 448.329101562 739 l 1
 87.3291015625 491 l 1
499.329101562 583 m 1
 384.329101562 479 315.329101562 443 206.329101562 363 c 0
 157.6953125 327.305664062 105.5546875 278.087890625 77.3291015625 202 c 0
 54.3291015625 140 98.4287109375 59.18359375 172.329101562 71 c 0
 240.971679688 81.9755859375 278.041992188 169.821289062 286.329101562 241 c 0
 295.649414062 321.055664062 278.333007812 392.150390625 262.329101562 466 c 0
 236.962890625 583.05078125 210.467773438 700.069335938 196.329101562 819 c 1
 305.329101562 820 l 1
 319.748046875 660.771484375 344.4140625 501.634765625 364.329101562 343 c 0
 367.70703125 316.087890625 369.91796875 288.724609375 369.91796875 261.494140625 c 0
 369.91796875 218.208984375 364.333007812 175.255859375 348.978515625 134.96875 c 0
 336.470703125 102.15234375 317.362304688 71.6083984375 291.72265625 47.6083984375 c 0
 266.083984375 23.609375 233.856445312 6.4208984375 199.329101562 0 c 0
 189.091796875 -1.9033203125 178.677734375 -2.857421875 168.264648438 -2.857421875 c 0
 150.5 -2.857421875 132.739257812 -0.08203125 115.870117188 5.4814453125 c 0
 89.111328125 14.3056640625 64.712890625 30.11328125 45.6015625 50.81640625 c 0
 26.490234375 71.5205078125 12.7119140625 97.015625 5.3154296875 124.203125 c 0
 0.8251953125 140.708007812 -1.3291015625 157.802734375 -1.3291015625 174.913085938 c 0
 -1.3291015625 185.98828125 -0.4267578125 197.069335938 1.3291015625 208 c 0
 10.19921875 263.236328125 40.509765625 313.283203125 78.7890625 354.081054688 c 0
 117.068359375 394.87890625 162.967773438 427.689453125 209.329101562 459 c 0
 310.474609375 527.309570312 412.728515625 595.055664062 501.329101562 679 c 1
 499.329101562 583 l 1
EndSplineSet
Validated: 524325
EndChar

StartChar: uniE03A
Encoding: 57402 57402 58
Width: 400
VWidth: 0
InSpiro: 1
Flags: HW
LayerCount: 2
Fore
SplineSet
65 33 m 1
 63 106 l 1
 382 264 l 1
 382 164 l 1
 65 33 l 1
  Spiro
    65 33 v
    63 106 v
    382 264 v
    382 164 v
    0 0 z
  EndSpiro
60 254 m 1
 381 452 l 1
 381 361 l 1
 62 167 l 1
 60 254 l 1
  Spiro
    60 254 v
    381 452 v
    381 361 v
    62 167 v
    0 0 z
  EndSpiro
316.965 794.624 m 1
 291 718 l 1
 261.200785512 737.050180972 222.225711064 740.930857144 189.255201475 728.130541656 c 0
 156.284691885 715.330226169 130.138376815 686.167128184 121 652 c 0
 115.50272562 631.446450698 115.96995339 609.334454839 122.330528892 589.031462601 c 0
 128.691104393 568.728470363 140.923756874 550.302378103 157.16556776 536.559307353 c 0
 173.407378647 522.816236603 193.604032803 513.802146323 214.679768679 510.889798165 c 0
 235.755504556 507.977450006 257.63984162 511.176583313 277 520 c 1
 283 0 l 1
 187.941 0 l 1
 200 431 l 1
 147.833584848 435.638717702 97.9711741415 462.226795611 65.050760011 502.958833434 c 0
 32.1303458805 543.690871256 16.5930055711 598.02112935 23 650 c 0
 30.9127270898 714.194627053 72.8653238554 773.19407739 130.902337026 801.746949307 c 0
 188.939350198 830.299821223 261.280803478 827.530407434 316.965 794.624 c 1
  Spiro
    316.965 794.624 v
    291 718 v
    121 652 o
    277 520 v
    283 0 v
    187.941 0 v
    200 431 v
    23 650 o
    0 0 z
  EndSpiro
EndSplineSet
Validated: 524325
EndChar

StartChar: uniE03B
Encoding: 57403 57403 59
Width: 800
VWidth: 0
Flags: HW
LayerCount: 2
Fore
SplineSet
445 307 m 1
 800 463 l 1
 800 364 l 1
 445 223 l 1
 445 307 l 1
385 417 m 1
 705 637 l 1
 703 526 l 1
 377 326 l 5
 385 417 l 1
385.57421875 578.559570312 m 0
 426.755859375 581.043945312 468.484375 573.266601562 506.112304688 556.349609375 c 0
 543.740234375 539.432617188 577.189453125 513.490234375 603.467773438 481.686523438 c 0
 656.025390625 418.078125 678.8984375 331.670898438 668.198242188 249.856445312 c 0
 660.015625 187.293945312 632.42578125 127.073242188 588.805664062 81.4853515625 c 0
 545.185546875 35.8974609375 485.270507812 5.7529296875 422.438476562 0 c 0
 381.588867188 -3.740234375 339.879882812 2.6484375 301.936523438 18.234375 c 0
 263.993164062 33.8203125 229.899414062 58.4931640625 202.731445312 89.2255859375 c 0
 148.39453125 150.69140625 122.811523438 235.770507812 130.598632812 317.440429688 c 0
 136.883789062 383.364257812 164.676757812 447.444335938 210.248046875 495.494140625 c 0
 255.8203125 543.543945312 319.470703125 574.572265625 385.57421875 578.559570312 c 0
  Spiro
    668.195 249.856 o
    422.435 0 o
    130.595 317.44 o
    385.571 578.56 o
    0 0 z
  EndSpiro
513 463 m 0
 492.381530871 476.131411361 468.433657163 483.861658214 444.065637976 485.799408062 c 0
 419.69761879 487.73715791 395.000848091 483.976689963 371.953468039 475.829696268 c 0
 325.858707935 459.535708877 286.652172316 426.614062601 258 387 c 0
 231.065110692 349.760227063 212.726561499 305.431419671 210.738184111 259.514807146 c 0
 209.743995417 236.556500884 212.99226968 213.337153873 221.077042107 191.826489253 c 0
 229.161814534 170.315824633 242.133431731 150.607405692 259 135 c 0
 277.208351459 118.150981061 299.857459503 106.221027882 323.962622074 100.358038928 c 0
 348.067784646 94.4950499739 373.493947731 94.6266378297 397.763555796 99.7666404027 c 0
 446.302771926 110.046645549 489.537883396 139.477406888 522 177 c 0
 557.439098747 217.963653071 581.58348848 270.124384355 582.874018335 324.274962613 c 0
 583.519283262 351.350251741 578.184065366 378.691524937 566.280119804 403.018130296 c 0
 554.376174242 427.344735655 535.843560301 448.45148114 513 463 c 0
  Spiro
    513 463 o
    258 387 o
    259 135 o
    522 177 o
    0 0 z
  EndSpiro
EndSplineSet
Validated: 524325
EndChar

StartChar: uniE03C
Encoding: 57404 57404 60
Width: 500
VWidth: 0
Flags: HW
LayerCount: 2
Fore
SplineSet
107 246 m 5
 500 442 l 1
 500 340 l 1
 107 150 l 5
 107 246 l 5
119 422 m 1
 500 651 l 1
 500 549 l 1
 119 326 l 1
 119 422 l 1
25 551 m 1
 5.25969187001 583.846411 -2.17177036093 623.889756608 4.42119271907 661.640244266 c 0
 11.0141557991 699.390731925 31.5496247733 734.479765914 61 759 c 0
 96.9802344932 788.956962024 145.678209942 802.512340709 192.202385908 797.268496843 c 0
 238.726561875 792.024652978 282.427581304 768.630854705 315 735 c 0
 342.181881784 706.93484692 361.895297157 672.09644553 374.47552758 635.106645352 c 0
 387.055758004 598.116845174 392.686866562 559.007612095 393.942374486 519.957244432 c 0
 396.453390333 441.856509108 382.545114425 364.283506596 371 287 c 0
 356.800947176 191.950912381 346.626830832 96.1030847739 347 0 c 1
 255 0 l 1
 251.427656693 88.18546718 261.481205044 176.498381046 279 263 c 0
 292.948457131 331.872552409 311.748893453 400.088749281 317.431414014 470.129429544 c 0
 320.272674294 505.149769675 319.513577331 540.732929439 311.505062635 574.943464005 c 0
 303.496547938 609.153998571 287.855843043 642.166875961 263 667 c 0
 242.216492954 687.764510282 214.739672344 702.402888762 185.488556916 705.13991245 c 0
 156.237441489 707.876936139 125.608100689 697.938606411 105 677 c 0
 89.8623299422 661.619557129 80.4364599301 640.671151056 79.2893156102 619.121414687 c 0
 78.1421712903 597.571678318 85.3049618551 575.677919771 99 559 c 1
 25 551 l 1
  Spiro
    25 551 v
    61 759 o
    315 735 o
    371 287 o
    347 0 v
    255 0 v
    279 263 o
    263 667 o
    105 677 o
    99 559 v
    0 0 z
  EndSpiro
EndSplineSet
Validated: 524325
EndChar

StartChar: uniE03D
Encoding: 57405 57405 61
Width: 400
VWidth: 0
Flags: HW
LayerCount: 2
Fore
SplineSet
0 121 m 1
 400 387 l 1
 400 503 l 1
 0 207 l 1
 0 121 l 1
0 307 m 1
 400 609 l 1
 400 745 l 1
 0 393 l 1
 0 307 l 1
147 823 m 1
 144 0 l 1
 261 0 l 1
 215 825 l 1
 147 823 l 1
EndSplineSet
Validated: 5
EndChar

StartChar: uniE03E
Encoding: 57406 57406 62
Width: 500
VWidth: 0
InSpiro: 1
Flags: HW
LayerCount: 2
Fore
SplineSet
5 162 m 1
 338 324 l 1
 338 230 l 1
 3 86 l 1
 5 162 l 1
  Spiro
    5 162 v
    338 324 v
    338 230 v
    3 86 v
    0 0 z
  EndSpiro
0 280 m 1
 309 532 l 1
 307 408 l 1
 0 204 l 1
 0 280 l 1
  Spiro
    0 280 v
    309 532 v
    307 408 v
    0 204 v
    0 0 z
  EndSpiro
469.239257812 551 m 1
 395.239257812 559 l 1
 408.934570312 575.677734375 416.096679688 597.571289062 414.950195312 619.12109375 c 0
 413.802734375 640.670898438 404.376953125 661.619140625 389.239257812 677 c 0
 368.630859375 697.938476562 338.001953125 707.876953125 308.750976562 705.139648438 c 0
 279.5 702.403320312 252.022460938 687.764648438 231.239257812 667 c 0
 206.383789062 642.166992188 190.743164062 609.154296875 182.734375 574.943359375 c 0
 174.725585938 540.733398438 173.966796875 505.149414062 176.807617188 470.129882812 c 0
 182.490234375 400.088867188 201.291015625 331.872070312 215.239257812 263 c 0
 232.7578125 176.498046875 242.811523438 88.185546875 239.239257812 0 c 1
 147.239257812 0 l 1
 147.612304688 96.103515625 137.438476562 191.951171875 123.239257812 287 c 0
 111.694335938 364.283203125 97.7861328125 441.856445312 100.296875 519.95703125 c 0
 101.552734375 559.0078125 107.18359375 598.1171875 119.763671875 635.106445312 c 0
 132.34375 672.096679688 152.057617188 706.934570312 179.239257812 735 c 0
 211.811523438 768.630859375 255.512695312 792.024414062 302.037109375 797.268554688 c 0
 348.561523438 802.512695312 397.258789062 788.95703125 433.239257812 759 c 0
 462.689453125 734.479492188 483.225585938 699.390625 489.818359375 661.640625 c 0
 496.411132812 623.889648438 488.979492188 583.846679688 469.239257812 551 c 1
  Spiro
    395.239 559 v
    389.239 677 o
    231.239 667 o
    215.239 263 o
    239.239 0 v
    147.239 0 v
    123.239 287 o
    179.239 735 o
    433.239 759 o
    469.239 551 v
    0 0 z
  EndSpiro
EndSplineSet
Validated: 524325
EndChar

StartChar: uniE03F
Encoding: 57407 57407 63
Width: 850
VWidth: 0
Flags: HW
LayerCount: 2
Fore
SplineSet
166 102 m 1
 164 0 l 1
 443 290 l 1
 446 389 l 1
 166 102 l 1
17 125 m 1
 17 43 l 1
 313.5 360 l 1
 316 453 l 1
 17 125 l 1
836 272 m 1
 755.5 329 l 1
 638.945414847 112 218.5 190 87.5 313 c 1
 14 249 l 1
 163.613039503 80.3517220693 724.773020536 21.368650209 836 272 c 1
EndSplineSet
Validated: 524325
EndChar

StartChar: uniE040
Encoding: 57408 57408 64
Width: 850
VWidth: 0
Flags: HW
LayerCount: 2
Fore
SplineSet
554 92 m 1
 817 336 l 1
 817 241 l 1
 548 8 l 1
 554 92 l 1
433 170 m 1
 694 416 l 1
 697 328 l 1
 424 83 l 1
 433 170 l 1
28.7106 67.584 m 1
 76.5947005838 148.442002811 147.691158727 215.464554159 231.462 258.048 c 0
 335.761716271 311.066941335 460.261336439 325.040078276 572.454 291.84 c 0
 675.61590586 261.312305577 766.552252783 190.924385786 821.286 98.304 c 1
 722.982 43.008 l 1
 704.064075775 88.4514099005 673.682922202 129.062392707 635.461787377 160.08071331 c 0
 597.240652552 191.099033913 551.285545038 212.434567405 503 222 c 0
 420.758308853 238.29219164 332.917515504 219.71954009 262 175 c 0
 203.57694957 138.159285441 156.235420193 84.0867426107 127.014 21.504 c 1
 28.7106 67.584 l 1
  Spiro
    231.462 258.048 o
    572.454 291.84 o
    821.286 98.304 v
    722.982 43.008 v
    503 222 o
    262 175 o
    127.014 21.504 v
    28.7106 67.584 v
    0 0 z
  EndSpiro
28.7099609375 95.232421875 m 1048
  Spiro
    28.7106 95.232 {
    0 0 z
  EndSpiro
EndSplineSet
Validated: 524325
EndChar

StartChar: uniE041
Encoding: 57409 57409 65
Width: 500
VWidth: 0
Flags: HW
LayerCount: 2
Fore
SplineSet
108 450 m 1
 456 650 l 1
 454 534 l 1
 104 360 l 1
 108 450 l 1
24 554 m 1
 360 828 l 1
 366 714 l 1
 18 448 l 1
 24 554 l 1
60.7099609375 19.408203125 m 1
 5.482421875 117 l 1
 86.458984375 141.278320312 157.416015625 197.6796875 198.94921875 271.311523438 c 0
 230.65234375 327.517578125 245.2421875 393.397460938 239.206054688 457.645507812 c 0
 233.168945312 521.892578125 206.296975199 584.151457855 163 632 c 0
 130.412109375 668.013671875 60.7841796875 707.791015625 15 724 c 1
 91 820 l 1
 149.272460938 786.286132812 225.150664844 722.983570954 261 666 c 0
 300.5078125 603.201171875 322.836914062 529.850585938 325.955078125 455.723632812 c 0
 329.072265625 381.596679688 313.147460938 306.866210938 281 240 c 0
 235.118164062 144.567382812 155.98828125 65.6103515625 60.7099609375 19.408203125 c 1
EndSplineSet
Validated: 524325
EndChar

StartChar: uniE042
Encoding: 57410 57410 66
Width: 550
VWidth: 0
InSpiro: 1
Flags: HW
LayerCount: 2
Fore
SplineSet
290 186 m 1
 550 374 l 1
 550 268 l 1
 286 132 l 1
 290 186 l 1
  Spiro
    290 186 v
    550 374 v
    550 268 v
    286 132 v
    0 0 z
  EndSpiro
240 264 m 1
 522 564 l 1
 512 442 l 1
 232 192 l 1
 240 264 l 1
  Spiro
    240 264 v
    522 564 v
    512 442 v
    232 192 v
    0 0 z
  EndSpiro
332 824 m 1
 410 748 l 1
 315.299096414 645.186405283 219.458299819 540.020396638 157.501 414.72 c 0
 141.381825418 382.12111376 128.337636916 347.808324348 121.409064276 312.108043474 c 0
 114.480491636 276.407762601 113.841877121 239.163285812 122.662340708 203.882772842 c 0
 131.482804294 168.602259872 150.134779626 135.407739473 177.669557387 111.651662631 c 0
 205.204335148 87.8955857884 241.677573304 74.2121263558 278 76 c 0
 306.244800174 77.3902742303 334.015917273 88.0952269589 355.616307962 106.346931574 c 0
 377.216698652 124.59863619 392.451661974 150.270637503 398 178 c 0
 402.411303342 200.046715407 400.754687939 223.279525318 393.234749753 244.468385294 c 0
 385.714811567 265.65724527 372.351194072 284.740696444 355.002227725 299.042116798 c 0
 337.653261379 313.343537151 316.368204629 322.821310203 294.13099361 326.141506504 c 0
 271.89378259 329.461702805 248.76780568 326.614842115 228 318 c 1
 198 408 l 1
 238.941406868 424.090862745 284.909502262 427.105791689 327.601340743 416.498172382 c 0
 370.293179224 405.890553075 409.506914986 381.710166145 438.142462876 348.316752763 c 0
 466.778010765 314.923339382 484.698024276 272.471406339 488.607901081 228.655569891 c 0
 492.517777887 184.839733444 482.389835597 139.865682645 460 102 c 0
 428.28394819 48.3618235438 371.619015853 10.2047949764 309.988418533 1.00526292308 c 0
 248.357821214 -8.19426913025 183.508708188 11.6777411065 136 52 c 0
 89.4929546885 91.4721134912 59.9278655131 148.798790877 48.5329451058 208.724651705 c 0
 37.1380246985 268.650512534 42.7558605791 330.935888897 58 390 c 0
 101.242318856 557.544329971 208.366424389 702.939107772 332 824 c 1
  Spiro
    332 824 v
    410 748 v
    157.501 414.72 o
    278 76 o
    398 178 o
    228 318 v
    198 408 v
    460 102 o
    136 52 o
    58 390 o
    0 0 z
  EndSpiro
EndSplineSet
Validated: 524325
EndChar

StartChar: uniE043
Encoding: 57411 57411 67
Width: 600
VWidth: 0
Flags: HW
LayerCount: 2
Fore
SplineSet
343 185 m 1
 651 439 l 1
 653 303 l 1
 341 85 l 1
 343 185 l 1
263 369 m 1
 571 623 l 1
 571 501 l 1
 265 259 l 1
 263 369 l 1
0 0 m 1
 205 826 l 1
 313 824 l 1
 600 0 l 1
 497 0 l 1
 271 673 l 1
 107 0 l 1
 0 0 l 1
  Spiro
    0 0 v
    205 826 v
    313 824 v
    600 0 v
    497 0 v
    271 673 v
    107 0 v
    0 0 z
  EndSpiro
EndSplineSet
Validated: 5
EndChar

StartChar: uniE044
Encoding: 57412 57412 68
Width: 600
VWidth: 0
InSpiro: 1
Flags: HW
LayerCount: 2
Fore
SplineSet
257 294 m 1
 691 500 l 1
 687 380 l 1
 254 186 l 1
 257 294 l 1
  Spiro
    257 294 v
    691 500 v
    687 380 v
    254 186 v
    0 0 z
  EndSpiro
256 484 m 1
 690 712 l 1
 688 598 l 1
 256 386 l 1
 256 484 l 1
  Spiro
    256 484 v
    690 712 v
    688 598 v
    256 386 v
    0 0 z
  EndSpiro
0 817 m 1
 557 817 l 1
 551.187830275 623.705990655 533.575274421 430.76752045 504.293 239.616 c 0
 492.003977404 159.394589587 477.661718996 79.4877213157 461.285 0 c 1
 369 0 l 1
 405.210184652 150.072305494 429.313900086 303.063943737 441 457 c 0
 447.464807347 542.158175505 450.134999691 627.604330525 449 713 c 1
 58.8532 712.704 l 1
 0 817 l 1
  Spiro
    0 817 v
    557 817 v
    504.293 239.616 o
    461.285 0 v
    369 0 v
    441 457 o
    449 713 v
    58.8532 712.704 v
    0 0 z
  EndSpiro
EndSplineSet
Validated: 524325
EndChar

StartChar: uniE045
Encoding: 57413 57413 69
Width: 700
VWidth: 0
InSpiro: 1
Flags: HW
LayerCount: 2
Fore
SplineSet
198 152 m 1
 626 290 l 1
 624 198 l 1
 188 68 l 1
 198 152 l 1
  Spiro
    198 152 v
    626 290 v
    624 198 v
    188 68 v
    0 0 z
  EndSpiro
150 211 m 1
 160 307 l 1
 585 439 l 1
 579 349 l 1
 150 211 l 1
  Spiro
    150 211 v
    160 307 v
    585 439 v
    579 349 v
    0 0 z
  EndSpiro
21.052734375 648.192382812 m 1
 53.6171875 664.627929688 90.0751953125 673.1875 126.551757812 673.30078125 c 0
 163.028320312 673.413085938 199.23828125 665.021484375 233.021484375 651.263671875 c 0
 289.419921875 628.296875 338.549804688 589.93359375 395.079101562 567.290039062 c 0
 423.34375 555.967773438 453.883789062 548.997070312 484.21875 551.6171875 c 0
 514.553710938 554.23828125 544.494140625 567.133789062 564.796875 589.82421875 c 0
 578.830078125 605.506835938 587.979492188 625.620117188 589.94140625 646.573242188 c 0
 591.90234375 667.526367188 586.5859375 689.1171875 574.965820312 706.663085938 c 0
 563.345703125 724.208984375 545.552734375 737.524414062 525.517578125 743.963867188 c 0
 505.482421875 750.404296875 483.416992188 749.984375 463.420898438 743.423828125 c 0
 431.32421875 732.89453125 405.583984375 706.958007812 391.125976562 676.428710938 c 0
 376.66796875 645.899414062 372.598632812 611.271484375 374.333007812 577.536132812 c 0
 379.426757812 478.439453125 424.327148438 385.447265625 437.291992188 287.0703125 c 0
 450.256835938 188.692382812 433.993164062 85.44921875 383.548828125 0 c 1
 291 0 l 1
 320.989257812 48.0830078125 339.8671875 102.94921875 346.525390625 159.224609375 c 0
 353.18359375 215.5 347.409179688 272.70703125 335 328 c 0
 320.217773438 393.868164062 296.173828125 457.6015625 285.229492188 524.21484375 c 0
 279.756835938 557.521484375 277.770507812 591.588867188 282.081054688 625.065429688 c 0
 286.392578125 658.541992188 297.158203125 691.34765625 315 720 c 0
 335.16015625 752.375 364.334960938 779.110351562 398.48046875 796.1015625 c 0
 432.625 813.092773438 471.500976562 820.401367188 509.500976562 817.15234375 c 0
 544.559570312 814.154296875 578.920898438 802.177734375 607.782226562 782.049804688 c 0
 636.643554688 761.921875 659.860351562 733.50390625 672.700195312 700.743164062 c 0
 685.5390625 667.982421875 687.709960938 631.030273438 678.111328125 597.177734375 c 0
 668.513671875 563.325195312 647.20703125 533.03515625 619 512 c 0
 591.071289062 491.171875 556.87890625 479.479492188 522.194335938 476.1953125 c 0
 487.508789062 472.911132812 452.438476562 477.703125 418.7109375 486.435546875 c 0
 351.254882812 503.900390625 288.2265625 535.671875 221 554 c 0
 154.01171875 572.262695312 82.794921875 576.75 14.908203125 562.17578125 c 1
 21.052734375 648.192382812 l 1
  Spiro
    21.0526 648.192 v
    233.021 651.264 o
    564.797 589.824 o
    463.421 743.424 o
    374.333 577.536 o
    383.549 0 v
    291 0 v
    335 328 o
    315 720 o
    509.501 817.152 o
    619 512 o
    221 554 o
    14.9086 562.176 v
    0 0 z
  EndSpiro
EndSplineSet
Validated: 524325
EndChar

StartChar: uniE062
Encoding: 57442 57442 70
Width: 400
VWidth: 0
Flags: HW
LayerCount: 2
Fore
SplineSet
400 358 m 1
 0 674 l 1
 0 524 l 1
 400 220 l 1
 400 358 l 1
  Spiro
    400 358 v
    0 674 v
    0 524 v
    400 220 v
    0 0 z
  EndSpiro
EndSplineSet
Validated: 9
EndChar

StartChar: uniE070
Encoding: 57456 57456 71
Width: 400
VWidth: 0
Flags: HW
LayerCount: 2
Fore
SplineSet
48 464 m 1
 400 488 l 1
 348 348 l 1
 0 360 l 1
 48 464 l 1
EndSplineSet
Validated: 1
EndChar

StartChar: uniE07E
Encoding: 57470 57470 72
Width: 400
VWidth: 0
Flags: HW
LayerCount: 2
Fore
SplineSet
0 344 m 1
 400 635 l 1
 400 464 l 1
 0 203 l 1
 0 344 l 1
  Spiro
    0 344 v
    400 635 v
    400 464 v
    0 203 v
    0 0 z
  EndSpiro
EndSplineSet
Validated: 1
EndChar

StartChar: uniE08C
Encoding: 57484 57484 73
Width: 400
VWidth: 0
Flags: HW
LayerCount: 2
Fore
SplineSet
0 236 m 1
 400 527 l 1
 400 356 l 1
 0 95 l 1
 0 236 l 1
  Spiro
    0 236 v
    400 527 v
    400 356 v
    0 95 v
    0 0 z
  EndSpiro
0 523 m 1
 400 814 l 1
 400 643 l 1
 0 382 l 1
 0 523 l 1
  Spiro
    0 523 v
    400 814 v
    400 643 v
    0 382 v
    0 0 z
  EndSpiro
EndSplineSet
Validated: 1
EndChar

StartChar: uniE055
Encoding: 57429 57429 74
Width: 500
VWidth: 0
InSpiro: 1
Flags: HW
LayerCount: 2
Fore
SplineSet
322 771 m 1
 248.658469046 656.392682776 182.527417597 533.187677453 160 399 c 0
 151.022234304 345.522697407 150.890031039 289.544058063 168.267604345 238.178290129 c 0
 176.956390998 212.495406162 190.048416419 188.201354803 207.59527118 167.532212819 c 0
 225.142125941 146.863070835 247.177682557 129.906791423 272 119 c 0
 303.22442945 105.280155345 338.80647624 101.433404565 372.098570881 108.838508633 c 0
 405.390665522 116.243612701 436.099222011 134.855114165 458 161 c 1
 500 77 l 1
 476.638485894 48.8018980911 446.006912225 26.6861744287 411.905351632 13.3453776863 c 0
 377.803791039 0.00458094391161 340.338462466 -4.51768062419 304 0 c 0
 252.53883102 6.3977700273 203.928223512 31.0168598064 166.510980452 66.9213622523 c 0
 129.093737391 102.825864698 102.746360693 149.440876806 87.5950544129 199.035445985 c 0
 57.292441853 298.224584345 70.0672493772 405.84332054 97 506 c 0
 125.94517141 613.640407601 170.386150955 716.734730524 223 815 c 1
 322 771 l 1
  Spiro
    322 771 v
    160 399 o
    272 119 o
    458 161 v
    500 77 v
    304 0 o
    97 506 o
    223 815 v
    0 0 z
  EndSpiro
EndSplineSet
Validated: 524321
EndChar

StartChar: uniE063
Encoding: 57443 57443 75
Width: 500
VWidth: 0
InSpiro: 1
Flags: HW
LayerCount: 2
Fore
SplineSet
0 743 m 1
 352 515 l 1
 352 403 l 1
 0 627 l 1
 0 743 l 1
  Spiro
    0 743 v
    352 515 v
    352 403 v
    0 627 v
    0 0 z
  EndSpiro
322 771 m 1
 248.658469046 656.392682776 182.527417597 533.187677453 160 399 c 0
 151.022234304 345.522697407 150.890031039 289.544058063 168.267604345 238.178290129 c 0
 176.956390998 212.495406162 190.048416419 188.201354803 207.59527118 167.532212819 c 0
 225.142125941 146.863070835 247.177682557 129.906791423 272 119 c 0
 303.22442945 105.280155345 338.80647624 101.433404565 372.098570881 108.838508633 c 0
 405.390665522 116.243612701 436.099222011 134.855114165 458 161 c 1
 500 77 l 1
 476.638485894 48.8018980911 446.006912225 26.6861744287 411.905351632 13.3453776863 c 0
 377.803791039 0.00458094391161 340.338462466 -4.51768062419 304 0 c 0
 252.53883102 6.3977700273 203.928223512 31.0168598064 166.510980452 66.9213622523 c 0
 129.093737391 102.825864698 102.746360693 149.440876806 87.5950544129 199.035445985 c 0
 57.292441853 298.224584345 70.0672493772 405.84332054 97 506 c 0
 125.94517141 613.640407601 170.386150955 716.734730524 223 815 c 1
 322 771 l 1
  Spiro
    322 771 v
    160 399 o
    272 119 o
    458 161 v
    500 77 v
    304 0 o
    97 506 o
    223 815 v
    0 0 z
  EndSpiro
EndSplineSet
Validated: 524325
EndChar

StartChar: uniE071
Encoding: 57457 57457 76
Width: 500
VWidth: 0
InSpiro: 1
Flags: HW
LayerCount: 2
Fore
SplineSet
-34 521 m 1
 376 525 l 1
 324 425 l 1
 -98 425 l 1
 -34 521 l 1
  Spiro
    -34 521 v
    376 525 v
    324 425 v
    -98 425 v
    0 0 z
  EndSpiro
322 771 m 1
 248.658469046 656.392682776 182.527417597 533.187677453 160 399 c 0
 151.022234304 345.522697407 150.890031039 289.544058063 168.267604345 238.178290129 c 0
 176.956390998 212.495406162 190.048416419 188.201354803 207.59527118 167.532212819 c 0
 225.142125941 146.863070835 247.177682557 129.906791423 272 119 c 0
 303.22442945 105.280155345 338.80647624 101.433404565 372.098570881 108.838508633 c 0
 405.390665522 116.243612701 436.099222011 134.855114165 458 161 c 1
 500 77 l 1
 476.638485894 48.8018980911 446.006912225 26.6861744287 411.905351632 13.3453776863 c 0
 377.803791039 0.00458094391161 340.338462466 -4.51768062419 304 0 c 0
 252.53883102 6.3977700273 203.928223512 31.0168598064 166.510980452 66.9213622523 c 0
 129.093737391 102.825864698 102.746360693 149.440876806 87.5950544129 199.035445985 c 0
 57.292441853 298.224584345 70.0672493772 405.84332054 97 506 c 0
 125.94517141 613.640407601 170.386150955 716.734730524 223 815 c 1
 322 771 l 1
  Spiro
    322 771 v
    160 399 o
    272 119 o
    458 161 v
    500 77 v
    304 0 o
    97 506 o
    223 815 v
    0 0 z
  EndSpiro
EndSplineSet
Validated: 524325
EndChar

StartChar: uniE07F
Encoding: 57471 57471 77
Width: 500
VWidth: 0
InSpiro: 1
Flags: HW
LayerCount: 2
Fore
SplineSet
-27 133 m 1
 336 435 l 1
 332 303 l 1
 -37 0 l 1
 -27 133 l 1
  Spiro
    -27 133 v
    336 435 v
    332 303 v
    -37 0 v
    0 0 z
  EndSpiro
322 771 m 1
 248.658469046 656.392682776 182.527417597 533.187677453 160 399 c 0
 151.022234304 345.522697407 150.890031039 289.544058063 168.267604345 238.178290129 c 0
 176.956390998 212.495406162 190.048416419 188.201354803 207.59527118 167.532212819 c 0
 225.142125941 146.863070835 247.177682557 129.906791423 272 119 c 0
 303.22442945 105.280155345 338.80647624 101.433404565 372.098570881 108.838508633 c 0
 405.390665522 116.243612701 436.099222011 134.855114165 458 161 c 1
 500 77 l 1
 476.638485894 48.8018980911 446.006912225 26.6861744287 411.905351632 13.3453776863 c 0
 377.803791039 0.00458094391161 340.338462466 -4.51768062419 304 0 c 0
 252.53883102 6.3977700273 203.928223512 31.0168598064 166.510980452 66.9213622523 c 0
 129.093737391 102.825864698 102.746360693 149.440876806 87.5950544129 199.035445985 c 0
 57.292441853 298.224584345 70.0672493772 405.84332054 97 506 c 0
 125.94517141 613.640407601 170.386150955 716.734730524 223 815 c 1
 322 771 l 1
  Spiro
    322 771 v
    160 399 o
    272 119 o
    458 161 v
    500 77 v
    304 0 o
    97 506 o
    223 815 v
    0 0 z
  EndSpiro
EndSplineSet
Validated: 524325
EndChar

StartChar: uniE08D
Encoding: 57485 57485 78
Width: 500
VWidth: 0
InSpiro: 1
Flags: HW
LayerCount: 2
Fore
SplineSet
-46 85 m 1
 -36 195 l 1
 296 485 l 1
 292 373 l 1
 -46 85 l 1
  Spiro
    -46 85 v
    -36 195 v
    296 485 v
    292 373 v
    0 0 z
  EndSpiro
24 0 m 1
 362 323 l 1
 360 205 l 1
 18 -107 l 1
 24 0 l 1
  Spiro
    24 0 v
    362 323 v
    360 205 v
    18 -107 v
    0 0 z
  EndSpiro
322 771 m 1
 248.658469046 656.392682776 182.527417597 533.187677453 160 399 c 0
 151.022234304 345.522697407 150.890031039 289.544058063 168.267604345 238.178290129 c 0
 176.956390998 212.495406162 190.048416419 188.201354803 207.59527118 167.532212819 c 0
 225.142125941 146.863070835 247.177682557 129.906791423 272 119 c 0
 303.22442945 105.280155345 338.80647624 101.433404565 372.098570881 108.838508633 c 0
 405.390665522 116.243612701 436.099222011 134.855114165 458 161 c 1
 500 77 l 1
 476.638485894 48.8018980911 446.006912225 26.6861744287 411.905351632 13.3453776863 c 0
 377.803791039 0.00458094391161 340.338462466 -4.51768062419 304 0 c 0
 252.53883102 6.3977700273 203.928223512 31.0168598064 166.510980452 66.9213622523 c 0
 129.093737391 102.825864698 102.746360693 149.440876806 87.5950544129 199.035445985 c 0
 57.292441853 298.224584345 70.0672493772 405.84332054 97 506 c 0
 125.94517141 613.640407601 170.386150955 716.734730524 223 815 c 1
 322 771 l 1
  Spiro
    322 771 v
    160 399 o
    272 119 o
    458 161 v
    500 77 v
    304 0 o
    97 506 o
    223 815 v
    0 0 z
  EndSpiro
EndSplineSet
Validated: 524325
EndChar

StartChar: uniE056
Encoding: 57430 57430 79
Width: 500
VWidth: 0
InSpiro: 1
Flags: HW
LayerCount: 2
Fore
SplineSet
8 312 m 0
 -0.593038990986 380.98912786 -1.70159176554 450.926143973 4.79702197379 520.143974778 c 0
 11.2956357131 589.361805584 24.6934357406 659.53182878 59 720 c 0
 75.4986218461 749.080192442 97.4281702757 775.530223194 125.192080944 794.158894099 c 0
 152.955991612 812.787565004 186.620248799 822.911628896 220 821 c 0
 243.499260095 819.654218111 266.555652114 812.52486427 287.10720333 801.050540913 c 0
 307.658754546 789.576217557 325.71722326 773.901482872 341 756 c 0
 369.643757777 722.448129946 388.736861209 681.629196551 402.143536732 639.599993666 c 0
 415.550212256 597.570790782 423.490077155 553.947915389 428.577129805 510.126519484 c 0
 438.751235103 422.483727675 438.287532617 333.629550082 428 246 c 0
 418.133409523 161.956049272 398.151607952 79.0671600569 368 0 c 1
 281 48 l 1
 319.544972469 139.035162709 339.996427119 237.267634432 345 336 c 0
 347.910279232 393.426714843 347.006754271 451.096414094 341.386507042 508.32149709 c 0
 338.576383427 536.934038589 334.400181457 565.521879884 326.428744254 593.144886865 c 0
 318.457307051 620.767893846 306.446938982 647.824757617 287 669 c 0
 278.681926335 678.05732394 269.000284736 685.924264825 258.146093396 691.704575959 c 0
 247.291902055 697.484887093 235.265697469 701.117882068 223 702 c 0
 210.00541316 702.934537812 196.831636541 700.761880448 184.715980667 695.971939864 c 0
 172.600324792 691.181999279 161.559513498 683.851460318 152 675 c 0
 130.952887128 655.511802779 117.140052752 629.26031221 108.086916812 602.04245923 c 0
 99.0337808733 574.82460625 94.4412577983 546.290435718 91.9460051896 517.71519284 c 0
 86.9554999722 460.56470708 89.5750202533 402.885436103 97 346 c 0
 110.35887536 243.652858778 142.934105366 143.697665926 194 54 c 1
 107 6 l 1
 54.56665494 100.271981468 21.3331752149 204.95473573 8 312 c 0
  Spiro
    8 312 o
    59 720 o
    220 821 o
    341 756 o
    428 246 o
    368 0 v
    281 48 v
    345 336 o
    287 669 o
    223 702 o
    152 675 o
    97 346 o
    194 54 v
    107 6 v
    0 0 z
  EndSpiro
EndSplineSet
EndChar

StartChar: uniE064
Encoding: 57444 57444 80
Width: 500
VWidth: 0
Flags: HW
LayerCount: 2
Fore
SplineSet
214 402 m 1
 536 158 l 1
 534 32 l 1
 216 278 l 1
 214 402 l 1
  Spiro
    214 402 v
    536 158 v
    534 32 v
    216 278 v
    0 0 z
  EndSpiro
8 312 m 0
 -0.593038990986 380.98912786 -1.70159176554 450.926143973 4.79702197379 520.143974778 c 0
 11.2956357131 589.361805584 24.6934357406 659.53182878 59 720 c 0
 75.4986218461 749.080192442 97.4281702757 775.530223194 125.192080944 794.158894099 c 0
 152.955991612 812.787565004 186.620248799 822.911628896 220 821 c 0
 243.499260095 819.654218111 266.555652114 812.52486427 287.10720333 801.050540913 c 0
 307.658754546 789.576217557 325.71722326 773.901482872 341 756 c 0
 369.643757777 722.448129946 388.736861209 681.629196551 402.143536732 639.599993666 c 0
 415.550212256 597.570790782 423.490077155 553.947915389 428.577129805 510.126519484 c 0
 438.751235103 422.483727675 438.287532617 333.629550082 428 246 c 0
 418.133409523 161.956049272 398.151607952 79.0671600569 368 0 c 1
 281 48 l 1
 320.974231529 148.06119261 342.020727492 255.322951177 346 363 c 0
 347.976590662 416.485517457 346.815375022 470.172710838 340.586720601 523.331071914 c 0
 337.472393391 549.910252453 332.927894471 576.419943859 324.888262086 601.944758906 c 0
 316.848629701 627.469573953 305.119375283 652.30634337 287 672 c 0
 278.674360003 681.049003775 268.992689627 688.912640255 258.140177105 694.69396559 c 0
 247.287664582 700.475290925 235.264360924 704.113319783 223 705 c 0
 210.005024622 705.939501671 196.829434173 703.769932725 184.713094025 698.97969788 c 0
 172.596753876 694.189463036 161.556679735 686.855615219 152 678 c 0
 130.716434876 658.277767125 116.849520345 631.646922647 107.805950077 604.075733866 c 0
 98.7623798089 576.504545086 94.2314644617 547.623564852 91.7796917695 518.710844042 c 0
 86.8761463849 460.885402421 89.4916806562 402.545213499 97 345 c 0
 110.314433368 242.955604217 142.796686738 143.266755053 194 54 c 1
 107 6 l 1
 54.56665494 100.271981468 21.3331752149 204.95473573 8 312 c 0
  Spiro
    8 312 o
    59 720 o
    220 821 o
    341 756 o
    428 246 o
    368 0 v
    281 48 v
    346 363 o
    287 672 o
    223 705 o
    152 678 o
    97 345 o
    194 54 v
    107 6 v
    0 0 z
  EndSpiro
EndSplineSet
Validated: 524325
EndChar

StartChar: uniE072
Encoding: 57458 57458 81
Width: 500
VWidth: 0
InSpiro: 1
Flags: HW
LayerCount: 2
Fore
SplineSet
239 462 m 1
 625 462 l 1
 573 378 l 1
 193 378 l 1
 239 462 l 1
  Spiro
    239 462 v
    625 462 v
    573 378 v
    193 378 v
    0 0 z
  EndSpiro
8 312 m 0
 -0.593038990986 380.98912786 -1.70159176554 450.926143973 4.79702197379 520.143974778 c 0
 11.2956357131 589.361805584 24.6934357406 659.53182878 59 720 c 0
 75.4986218461 749.080192442 97.4281702757 775.530223194 125.192080944 794.158894099 c 0
 152.955991612 812.787565004 186.620248799 822.911628896 220 821 c 0
 243.499260095 819.654218111 266.555652114 812.52486427 287.10720333 801.050540913 c 0
 307.658754546 789.576217557 325.71722326 773.901482872 341 756 c 0
 369.643757777 722.448129946 388.736861209 681.629196551 402.143536732 639.599993666 c 0
 415.550212256 597.570790782 423.490077155 553.947915389 428.577129805 510.126519484 c 0
 438.751235103 422.483727675 438.287532617 333.629550082 428 246 c 0
 418.133409523 161.956049272 398.151607952 79.0671600569 368 0 c 1
 281 48 l 1
 322.132893404 147.714170833 343.269676674 255.199649942 347 363 c 0
 348.89753852 417.835814181 347.509210752 472.857264468 341.25792222 527.368626229 c 0
 338.132277955 554.62430711 333.618968655 581.821874924 325.533586352 608.037679038 c 0
 317.448204049 634.253483153 305.581095707 659.816227442 287 680 c 0
 278.67207127 689.046238285 268.989675808 696.907730605 258.137561629 702.688772198 c 0
 247.285447451 708.46981379 235.263613095 712.109709102 223 713 c 0
 210.004309298 713.943436902 196.826635648 711.778828908 184.708717871 706.989870903 c 0
 172.590800095 702.200912898 161.550053769 694.864227153 152 686 c 0
 130.252208371 665.814002125 116.31474724 638.402851137 107.401400696 610.101027797 c 0
 98.4880541525 581.799204457 94.261695142 552.202119857 92.119621259 522.607315069 c 0
 87.8354734928 463.417705491 91.047078873 403.809139168 99 345 c 0
 112.753467626 243.297797913 144.460663936 143.879641541 194 54 c 1
 107 6 l 1
 54.56665494 100.271981468 21.3331752149 204.95473573 8 312 c 0
  Spiro
    8 312 o
    59 720 o
    220 821 o
    341 756 o
    428 246 o
    368 0 v
    281 48 v
    347 363 o
    287 680 o
    223 713 o
    152 686 o
    99 345 o
    194 54 v
    107 6 v
    0 0 z
  EndSpiro
EndSplineSet
Validated: 524325
EndChar

StartChar: uniE080
Encoding: 57472 57472 82
Width: 500
VWidth: 0
InSpiro: 1
Flags: HW
LayerCount: 2
Fore
SplineSet
205 496 m 1
 521 700 l 1
 515 602 l 1
 207 390 l 1
 205 496 l 1
  Spiro
    205 496 v
    521 700 v
    515 602 v
    207 390 v
    0 0 z
  EndSpiro
8 312 m 0
 -0.593038990986 380.98912786 -1.70159176554 450.926143973 4.79702197379 520.143974778 c 0
 11.2956357131 589.361805584 24.6934357406 659.53182878 59 720 c 0
 75.4986218461 749.080192442 97.4281702757 775.530223194 125.192080944 794.158894099 c 0
 152.955991612 812.787565004 186.620248799 822.911628896 220 821 c 0
 243.499260095 819.654218111 266.555652114 812.52486427 287.10720333 801.050540913 c 0
 307.658754546 789.576217557 325.71722326 773.901482872 341 756 c 0
 369.643757777 722.448129946 388.736861209 681.629196551 402.143536732 639.599993666 c 0
 415.550212256 597.570790782 423.490077155 553.947915389 428.577129805 510.126519484 c 0
 438.751235103 422.483727675 438.287532617 333.629550082 428 246 c 0
 418.133409523 161.956049272 398.151607952 79.0671600569 368 0 c 1
 281 48 l 1
 326.119590561 143.987020109 348.277731971 249.97229259 351 356 c 0
 352.435924496 411.926815699 349.926013607 467.991456492 342.939724438 523.498774541 c 0
 339.446579853 551.252433566 334.658083097 578.941389507 326.343967997 605.649873898 c 0
 318.029852896 632.35835829 305.972773957 658.4451588 287 679 c 0
 278.661097156 688.034252141 268.979117104 695.891654861 258.129413337 701.674296173 c 0
 247.279709569 707.456937486 235.261797261 711.103707452 223 712 c 0
 210.003827467 712.949972696 196.823817931 710.789212783 184.705055712 705.999792055 c 0
 172.586293494 701.210371326 161.546514487 693.869442473 152 685 c 0
 130.386881887 664.919759403 116.502796803 637.688883884 107.604532079 609.561249396 c 0
 98.7062673557 581.433614908 94.46227201 552.012688956 92.3000784439 522.590454915 c 0
 87.9756913114 463.74598683 91.1453264918 404.477994599 99 346 c 0
 112.704309218 243.971504537 144.435034273 144.227136439 194 54 c 1
 107 6 l 1
 54.56665494 100.271981468 21.3331752149 204.95473573 8 312 c 0
  Spiro
    8 312 o
    59 720 o
    220 821 o
    341 756 o
    428 246 o
    368 0 v
    281 48 v
    351 356 o
    287 679 o
    223 712 o
    152 685 o
    99 346 o
    194 54 v
    107 6 v
    0 0 z
  EndSpiro
EndSplineSet
Validated: 524325
EndChar

StartChar: uniE08E
Encoding: 57486 57486 83
Width: 500
VWidth: 0
InSpiro: 1
Flags: HW
LayerCount: 2
Fore
SplineSet
242 347 m 1
 569 589 l 1
 569 493 l 1
 244 241 l 1
 242 347 l 1
  Spiro
    242 347 v
    569 589 v
    569 493 v
    244 241 v
    0 0 z
  EndSpiro
205 536 m 1
 532 778 l 1
 532 682 l 1
 207 430 l 1
 205 536 l 1
  Spiro
    205 536 v
    532 778 v
    532 682 v
    207 430 v
    0 0 z
  EndSpiro
8 312 m 0
 -0.593038990986 380.98912786 -1.70159176554 450.926143973 4.79702197379 520.143974778 c 0
 11.2956357131 589.361805584 24.6934357406 659.53182878 59 720 c 0
 75.4986218461 749.080192442 97.4281702757 775.530223194 125.192080944 794.158894099 c 0
 152.955991612 812.787565004 186.620248799 822.911628896 220 821 c 0
 243.499260095 819.654218111 266.555652114 812.52486427 287.10720333 801.050540913 c 0
 307.658754546 789.576217557 325.71722326 773.901482872 341 756 c 0
 369.643757777 722.448129946 388.736861209 681.629196551 402.143536732 639.599993666 c 0
 415.550212256 597.570790782 423.490077155 553.947915389 428.577129805 510.126519484 c 0
 438.751235103 422.483727675 438.287532617 333.629550082 428 246 c 0
 418.133409523 161.956049272 398.151607952 79.0671600569 368 0 c 1
 281 48 l 1
 326.119590561 143.987020109 348.277731971 249.97229259 351 356 c 0
 352.435924496 411.926815699 349.926013607 467.991456492 342.939724438 523.498774541 c 0
 339.446579853 551.252433566 334.658083097 578.941389507 326.343967997 605.649873898 c 0
 318.029852896 632.35835829 305.972773957 658.4451588 287 679 c 0
 278.661097156 688.034252141 268.979117104 695.891654861 258.129413337 701.674296173 c 0
 247.279709569 707.456937486 235.261797261 711.103707452 223 712 c 0
 210.003827467 712.949972696 196.823817931 710.789212783 184.705055712 705.999792055 c 0
 172.586293494 701.210371326 161.546514487 693.869442473 152 685 c 0
 130.386881887 664.919759403 116.502796803 637.688883884 107.604532079 609.561249396 c 0
 98.7062673557 581.433614908 94.46227201 552.012688956 92.3000784439 522.590454915 c 0
 87.9756913114 463.74598683 91.1453264918 404.477994599 99 346 c 0
 112.704309218 243.971504537 144.435034273 144.227136439 194 54 c 1
 107 6 l 1
 54.56665494 100.271981468 21.3331752149 204.95473573 8 312 c 0
  Spiro
    8 312 o
    59 720 o
    220 821 o
    341 756 o
    428 246 o
    368 0 v
    281 48 v
    351 356 o
    287 679 o
    223 712 o
    152 685 o
    99 346 o
    194 54 v
    107 6 v
    0 0 z
  EndSpiro
EndSplineSet
Validated: 524325
EndChar

StartChar: uniE057
Encoding: 57431 57431 84
Width: 500
VWidth: 0
InSpiro: 1
Flags: HW
LayerCount: 2
Fore
SplineSet
140 815 m 1
 227 767 l 1
 179.235652446 680.055660862 148.227390617 584.175008844 134 486 c 0
 125.370203664 426.450757665 121.611928743 366.038934457 125.424502319 305.988539535 c 0
 127.330789106 275.963342074 131.345527239 245.913472854 140.16431931 217.149340357 c 0
 148.983111382 188.385207859 162.959862395 160.478738884 185 140 c 0
 194.545905931 131.13035869 205.587021155 123.79178239 217.705922046 119.003557437 c 0
 229.824822937 114.215332484 243.003858594 112.0538681 256 113 c 0
 268.263071781 113.892763709 280.283818067 117.534149112 291.135576891 123.315090815 c 0
 301.987335715 129.096032518 311.670202051 136.955973094 320 146 c 0
 338.64380832 166.24240025 350.538076168 191.892101092 358.64007538 218.192366591 c 0
 366.742074593 244.49263209 371.262932416 271.776007296 374.392568706 299.117399602 c 0
 380.651841286 353.800184215 382.035352961 408.997793093 380 464 c 0
 376.083568778 569.835383141 354.929910264 675.320886552 314 773 c 1
 401 821 l 1
 431.151607952 741.932839943 451.133409523 659.043950728 461 575 c 0
 471.287532616 487.370449919 471.751235103 398.516272327 461.577129804 310.873480517 c 0
 456.490077154 267.052084613 448.550212255 223.42920922 435.143536732 181.400006335 c 0
 421.736861209 139.37080345 402.643757777 98.5518700542 374 65 c 0
 358.71722326 47.098517128 340.658754546 31.4237824435 320.10720333 19.9494590865 c 0
 299.555652114 8.47513572958 276.499260095 1.3457818889 253 0 c 0
 219.620248799 -1.9116288956 185.955991612 8.21243499632 158.192080944 26.8411059012 c 0
 130.428170276 45.4697768061 108.498621846 71.9198075583 92 101 c 0
 57.6934357405 161.46817122 44.295635713 231.638194416 37.7970219737 300.856025222 c 0
 31.2984082344 370.073856027 32.406961009 440.01087214 41 509 c 0
 54.3331752149 616.04526427 87.56665494 720.728018532 140 815 c 1
  Spiro
    140 815 v
    227 767 v
    134 486 o
    185 140 o
    256 113 o
    320 146 o
    380 464 o
    314 773 v
    401 821 v
    461 575 o
    374 65 o
    253 0 o
    92 101 o
    41 509 o
    0 0 z
  EndSpiro
EndSplineSet
Validated: 524321
EndChar

StartChar: uniE065
Encoding: 57445 57445 85
Width: 500
VWidth: 0
InSpiro: 1
Flags: HW
LayerCount: 2
Fore
SplineSet
218 420 m 1
 560 148 l 1
 568 12 l 1
 220 306 l 1
 218 420 l 1
140 815 m 1
 227 767 l 1
 179.235652446 680.055660862 148.227390617 584.175008844 134 486 c 0
 125.370203664 426.450757665 121.611928743 366.038934457 125.424502319 305.988539535 c 0
 127.330789106 275.963342074 131.345527239 245.913472854 140.16431931 217.149340357 c 0
 148.983111382 188.385207859 162.959862395 160.478738884 185 140 c 0
 194.545905931 131.13035869 205.587021155 123.79178239 217.705922046 119.003557437 c 0
 229.824822937 114.215332484 243.003858594 112.0538681 256 113 c 0
 268.263071781 113.892763709 280.283818067 117.534149112 291.135576891 123.315090815 c 0
 301.987335715 129.096032518 311.670202051 136.955973094 320 146 c 0
 338.64380832 166.24240025 350.538076168 191.892101092 358.64007538 218.192366591 c 0
 366.742074593 244.49263209 371.262932416 271.776007296 374.392568706 299.117399602 c 0
 380.651841286 353.800184215 382.035352961 408.997793093 380 464 c 0
 376.083568778 569.835383141 354.929910264 675.320886552 314 773 c 1
 401 821 l 1
 431.151607952 741.932839943 451.133409523 659.043950728 461 575 c 0
 471.287532616 487.370449919 471.751235103 398.516272327 461.577129804 310.873480517 c 0
 456.490077154 267.052084613 448.550212255 223.42920922 435.143536732 181.400006335 c 0
 421.736861209 139.37080345 402.643757777 98.5518700542 374 65 c 0
 358.71722326 47.098517128 340.658754546 31.4237824435 320.10720333 19.9494590865 c 0
 299.555652114 8.47513572958 276.499260095 1.3457818889 253 0 c 0
 219.620248799 -1.9116288956 185.955991612 8.21243499632 158.192080944 26.8411059012 c 0
 130.428170276 45.4697768061 108.498621846 71.9198075583 92 101 c 0
 57.6934357405 161.46817122 44.295635713 231.638194416 37.7970219737 300.856025222 c 0
 31.2984082344 370.073856027 32.406961009 440.01087214 41 509 c 0
 54.3331752149 616.04526427 87.56665494 720.728018532 140 815 c 1
  Spiro
    140 815 v
    227 767 v
    134 486 o
    185 140 o
    256 113 o
    320 146 o
    380 464 o
    314 773 v
    401 821 v
    461 575 o
    374 65 o
    253 0 o
    92 101 o
    41 509 o
    0 0 z
  EndSpiro
EndSplineSet
Validated: 524325
EndChar

StartChar: uniE073
Encoding: 57459 57459 86
Width: 600
VWidth: 0
InSpiro: 1
Flags: HW
LayerCount: 2
Fore
SplineSet
231 512 m 1
 659 516 l 1
 623 414 l 1
 191 412 l 1
 231 512 l 1
  Spiro
    231 512 v
    659 516 v
    623 414 v
    191 412 v
    0 0 z
  EndSpiro
140 815 m 1
 227 767 l 1
 179.235652446 680.055660862 148.227390617 584.175008844 134 486 c 0
 125.370203664 426.450757665 121.611928743 366.038934457 125.424502319 305.988539535 c 0
 127.330789106 275.963342074 131.345527239 245.913472854 140.16431931 217.149340357 c 0
 148.983111382 188.385207859 162.959862395 160.478738884 185 140 c 0
 194.545905931 131.13035869 205.587021155 123.79178239 217.705922046 119.003557437 c 0
 229.824822937 114.215332484 243.003858594 112.0538681 256 113 c 0
 268.263071781 113.892763709 280.283818067 117.534149112 291.135576891 123.315090815 c 0
 301.987335715 129.096032518 311.670202051 136.955973094 320 146 c 0
 338.64380832 166.24240025 350.538076168 191.892101092 358.64007538 218.192366591 c 0
 366.742074593 244.49263209 371.262932416 271.776007296 374.392568706 299.117399602 c 0
 380.651841286 353.800184215 382.035352961 408.997793093 380 464 c 0
 376.083568778 569.835383141 354.929910264 675.320886552 314 773 c 1
 401 821 l 1
 431.151607952 741.932839943 451.133409523 659.043950728 461 575 c 0
 471.287532616 487.370449919 471.751235103 398.516272327 461.577129804 310.873480517 c 0
 456.490077154 267.052084613 448.550212255 223.42920922 435.143536732 181.400006335 c 0
 421.736861209 139.37080345 402.643757777 98.5518700542 374 65 c 0
 358.71722326 47.098517128 340.658754546 31.4237824435 320.10720333 19.9494590865 c 0
 299.555652114 8.47513572958 276.499260095 1.3457818889 253 0 c 0
 219.620248799 -1.9116288956 185.955991612 8.21243499632 158.192080944 26.8411059012 c 0
 130.428170276 45.4697768061 108.498621846 71.9198075583 92 101 c 0
 57.6934357405 161.46817122 44.295635713 231.638194416 37.7970219737 300.856025222 c 0
 31.2984082344 370.073856027 32.406961009 440.01087214 41 509 c 0
 54.3331752149 616.04526427 87.56665494 720.728018532 140 815 c 1
  Spiro
    140 815 v
    227 767 v
    134 486 o
    185 140 o
    256 113 o
    320 146 o
    380 464 o
    314 773 v
    401 821 v
    461 575 o
    374 65 o
    253 0 o
    92 101 o
    41 509 o
    0 0 z
  EndSpiro
EndSplineSet
Validated: 524325
EndChar

StartChar: uniE081
Encoding: 57473 57473 87
Width: 499
VWidth: 0
InSpiro: 1
Flags: HW
LayerCount: 2
Fore
SplineSet
240 501 m 1
 571 754 l 1
 569 638 l 1
 238 387 l 1
 240 501 l 1
  Spiro
    240 501 v
    571 754 v
    569 638 v
    238 387 v
    0 0 z
  EndSpiro
140 815 m 1
 227 767 l 1
 179.235652446 680.055660862 148.227390617 584.175008844 134 486 c 0
 125.370203664 426.450757665 121.611928743 366.038934457 125.424502319 305.988539535 c 0
 127.330789106 275.963342074 131.345527239 245.913472854 140.16431931 217.149340357 c 0
 148.983111382 188.385207859 162.959862395 160.478738884 185 140 c 0
 194.545905931 131.13035869 205.587021155 123.79178239 217.705922046 119.003557437 c 0
 229.824822937 114.215332484 243.003858594 112.0538681 256 113 c 0
 268.263071781 113.892763709 280.283818067 117.534149112 291.135576891 123.315090815 c 0
 301.987335715 129.096032518 311.670202051 136.955973094 320 146 c 0
 338.64380832 166.24240025 350.538076168 191.892101092 358.64007538 218.192366591 c 0
 366.742074593 244.49263209 371.262932416 271.776007296 374.392568706 299.117399602 c 0
 380.651841286 353.800184215 382.035352961 408.997793093 380 464 c 0
 376.083568778 569.835383141 354.929910264 675.320886552 314 773 c 1
 401 821 l 1
 431.151607952 741.932839943 451.133409523 659.043950728 461 575 c 0
 471.287532616 487.370449919 471.751235103 398.516272327 461.577129804 310.873480517 c 0
 456.490077154 267.052084613 448.550212255 223.42920922 435.143536732 181.400006335 c 0
 421.736861209 139.37080345 402.643757777 98.5518700542 374 65 c 0
 358.71722326 47.098517128 340.658754546 31.4237824435 320.10720333 19.9494590865 c 0
 299.555652114 8.47513572958 276.499260095 1.3457818889 253 0 c 0
 219.620248799 -1.9116288956 185.955991612 8.21243499632 158.192080944 26.8411059012 c 0
 130.428170276 45.4697768061 108.498621846 71.9198075583 92 101 c 0
 57.6934357405 161.46817122 44.295635713 231.638194416 37.7970219737 300.856025222 c 0
 31.2984082344 370.073856027 32.406961009 440.01087214 41 509 c 0
 54.3331752149 616.04526427 87.56665494 720.728018532 140 815 c 1
  Spiro
    140 815 v
    227 767 v
    134 486 o
    185 140 o
    256 113 o
    320 146 o
    380 464 o
    314 773 v
    401 821 v
    461 575 o
    374 65 o
    253 0 o
    92 101 o
    41 509 o
    0 0 z
  EndSpiro
EndSplineSet
Validated: 524325
EndChar

StartChar: uniE08F
Encoding: 57487 57487 88
Width: 499
VWidth: 0
InSpiro: 1
Flags: HW
LayerCount: 2
Fore
SplineSet
245 336 m 1
 593 540 l 1
 596 421 l 1
 249 244 l 1
 245 336 l 1
  Spiro
    245 336 v
    593 540 v
    596 421 v
    249 244 v
    0 0 z
  EndSpiro
210 534 m 1
 571 765 l 1
 569 649 l 1
 208 420 l 1
 210 534 l 1
  Spiro
    210 534 v
    571 765 v
    569 649 v
    208 420 v
    0 0 z
  EndSpiro
140 815 m 1
 227 767 l 1
 179.235652446 680.055660862 148.227390617 584.175008844 134 486 c 0
 125.370203664 426.450757665 121.611928743 366.038934457 125.424502319 305.988539535 c 0
 127.330789106 275.963342074 131.345527239 245.913472854 140.16431931 217.149340357 c 0
 148.983111382 188.385207859 162.959862395 160.478738884 185 140 c 0
 194.545905931 131.13035869 205.587021155 123.79178239 217.705922046 119.003557437 c 0
 229.824822937 114.215332484 243.003858594 112.0538681 256 113 c 0
 268.263071781 113.892763709 280.283818067 117.534149112 291.135576891 123.315090815 c 0
 301.987335715 129.096032518 311.670202051 136.955973094 320 146 c 0
 338.64380832 166.24240025 350.538076168 191.892101092 358.64007538 218.192366591 c 0
 366.742074593 244.49263209 371.262932416 271.776007296 374.392568706 299.117399602 c 0
 380.651841286 353.800184215 382.035352961 408.997793093 380 464 c 0
 376.083568778 569.835383141 354.929910264 675.320886552 314 773 c 1
 401 821 l 1
 431.151607952 741.932839943 451.133409523 659.043950728 461 575 c 0
 471.287532616 487.370449919 471.751235103 398.516272327 461.577129804 310.873480517 c 0
 456.490077154 267.052084613 448.550212255 223.42920922 435.143536732 181.400006335 c 0
 421.736861209 139.37080345 402.643757777 98.5518700542 374 65 c 0
 358.71722326 47.098517128 340.658754546 31.4237824435 320.10720333 19.9494590865 c 0
 299.555652114 8.47513572958 276.499260095 1.3457818889 253 0 c 0
 219.620248799 -1.9116288956 185.955991612 8.21243499632 158.192080944 26.8411059012 c 0
 130.428170276 45.4697768061 108.498621846 71.9198075583 92 101 c 0
 57.6934357405 161.46817122 44.295635713 231.638194416 37.7970219737 300.856025222 c 0
 31.2984082344 370.073856027 32.406961009 440.01087214 41 509 c 0
 54.3331752149 616.04526427 87.56665494 720.728018532 140 815 c 1
  Spiro
    140 815 v
    227 767 v
    134 486 o
    185 140 o
    256 113 o
    320 146 o
    380 464 o
    314 773 v
    401 821 v
    461 575 o
    374 65 o
    253 0 o
    92 101 o
    41 509 o
    0 0 z
  EndSpiro
EndSplineSet
Validated: 524325
EndChar

StartChar: uniE058
Encoding: 57432 57432 89
Width: 600
VWidth: 0
InSpiro: 1
Flags: HW
LayerCount: 2
Fore
SplineSet
403 812 m 1
 600 608 l 1
 600 477 l 1
 353 718 l 1
 369 -206 l 1
 249 -206 l 1
 0 66 l 1
 0 197 l 1
 261 -90 l 1
 244 812 l 1
 403 812 l 1
  Spiro
    403 812 v
    600 608 v
    600 477 v
    353 718 v
    369 -206 v
    249 -206 v
    0 66 v
    0 197 v
    261 -90 v
    244 812 v
    0 0 z
  EndSpiro
EndSplineSet
Validated: 1
EndChar

StartChar: uniE066
Encoding: 57446 57446 90
Width: 600
VWidth: 0
Flags: HW
LayerCount: 2
Fore
SplineSet
85 610 m 1
 515 218 l 1
 523 88 l 1
 87 486 l 1
 85 610 l 1
391 822 m 1
 600 591 l 1
 600 477 l 1
 351 736 l 1
 379 -202 l 1
 281 -202 l 1
 0 66 l 1
 0 192 l 1
 275 -88 l 1
 251 826 l 1
 391 822 l 1
EndSplineSet
Validated: 5
EndChar

StartChar: uniE074
Encoding: 57460 57460 91
Width: 600
VWidth: 0
InSpiro: 1
Flags: HW
LayerCount: 2
Fore
SplineSet
114 362 m 1
 589 363 l 1
 520 264 l 1
 48 266 l 1
 114 362 l 1
  Spiro
    114 362 v
    589 363 v
    520 264 v
    48 266 v
    0 0 z
  EndSpiro
379 822 m 1
 600 591 l 1
 600 477 l 1
 345 716 l 1
 361 -210 l 1
 263 -210 l 1
 0 66 l 1
 0 197 l 1
 259 -96 l 1
 239 822 l 1
 379 822 l 1
  Spiro
    379 822 v
    600 591 v
    600 477 v
    345 716 v
    361 -210 v
    263 -210 v
    0 66 v
    0 197 v
    259 -96 v
    239 822 v
    0 0 z
  EndSpiro
EndSplineSet
Validated: 5
EndChar

StartChar: uniE082
Encoding: 57474 57474 92
Width: 600
VWidth: 0
InSpiro: 1
Flags: HW
LayerCount: 2
Fore
SplineSet
127 274 m 1
 491 532 l 1
 487 422 l 1
 127 158 l 1
 127 274 l 1
  Spiro
    127 274 v
    491 532 v
    487 422 v
    127 158 v
    0 0 z
  EndSpiro
395 824 m 1
 600 591 l 1
 600 477 l 1
 355 714 l 1
 380 -213 l 1
 263 -210 l 1
 0 66 l 1
 0 197 l 1
 265 -84 l 1
 247 824 l 1
 395 824 l 1
  Spiro
    395 824 v
    600 591 v
    600 477 v
    355 714 v
    380 -213 v
    263 -210 v
    0 66 v
    0 197 v
    265 -84 v
    247 824 v
    0 0 z
  EndSpiro
EndSplineSet
Validated: 5
EndChar

StartChar: uniE090
Encoding: 57488 57488 93
Width: 600
VWidth: 0
InSpiro: 1
Flags: HW
LayerCount: 2
Fore
SplineSet
151 200 m 1
 503 384 l 1
 503 276 l 1
 149 110 l 1
 151 200 l 1
  Spiro
    151 200 v
    503 384 v
    503 276 v
    149 110 v
    0 0 z
  EndSpiro
129 374 m 1
 499 546 l 1
 497 450 l 1
 131 274 l 1
 129 374 l 1
  Spiro
    129 374 v
    499 546 v
    497 450 v
    131 274 v
    0 0 z
  EndSpiro
351 820 m 1
 600 591 l 1
 600 477 l 1
 349 714 l 1
 380 -213 l 1
 263 -210 l 1
 0 66 l 1
 0 197 l 1
 277 -96 l 1
 243 822 l 1
 351 820 l 1
  Spiro
    351 820 v
    600 591 v
    600 477 v
    349 714 v
    380 -213 v
    263 -210 v
    0 66 v
    0 197 v
    277 -96 v
    243 822 v
    0 0 z
  EndSpiro
EndSplineSet
Validated: 5
EndChar

StartChar: uniE054
Encoding: 57428 57428 94
Width: 300
VWidth: 0
Flags: HW
LayerCount: 2
Fore
SplineSet
16 445 m 1
 108.622332936 503.139884204 134.196833449 547.663665676 149 590 c 1
 184.235364166 530.843155911 212.559707736 462.268677151 300 444 c 5
 228.560362963 408.708084977 169.21091099 371.945458602 151 312 c 5
 120.269749504 374.852298232 73.3678258112 416.717357116 16 445 c 1
EndSplineSet
Validated: 524289
EndChar
